<?xml version="1.0" standalone="no"?>
<!DOCTYPE svg PUBLIC "-//W3C//DTD SVG 20010904//EN"
 "http://www.w3.org/TR/2001/REC-SVG-20010904/DTD/svg10.dtd">
<svg version="1.0" xmlns="http://www.w3.org/2000/svg"
 width="5760.000000pt" height="3840.000000pt" viewBox="0 0 5760.000000 3840.000000"
 preserveAspectRatio="xMidYMid meet">

<g transform="translate(0.000000,3840.000000) scale(0.100000,-0.100000)"
fill="#000000" stroke="none">
<path d="M23186 36171 c-3 -4 1 -17 9 -27 13 -17 14 -18 15 -1 0 9 -5 17 -11
17 -5 0 -7 5 -4 10 3 6 4 10 1 10 -3 0 -7 -4 -10 -9z"/>
<path d="M23168 36114 c-8 -7 3 -44 13 -44 5 0 5 8 2 17 -5 12 -2 15 10 10 11
-4 14 -2 10 9 -5 14 -25 19 -35 8z"/>
<path d="M23135 36010 c3 -5 10 -10 16 -10 5 0 9 5 9 10 0 6 -7 10 -16 10 -8
0 -12 -4 -9 -10z"/>
<path d="M23127 35971 c4 -17 2 -20 -11 -15 -11 4 -19 -2 -25 -19 -5 -14 -15
-28 -21 -32 -7 -4 -9 -19 -5 -36 4 -16 2 -29 -3 -29 -14 0 -20 -43 -10 -70 10
-27 1 -41 -13 -20 -8 11 -9 3 -5 -28 4 -23 3 -42 -1 -41 -20 3 -27 -2 -13 -11
13 -8 13 -10 -2 -10 -16 0 -20 -33 -6 -55 3 -6 -5 -11 -19 -12 -14 0 -30 -6
-37 -13 -8 -9 -4 -10 18 -4 21 5 27 4 22 -5 -4 -6 -13 -11 -21 -11 -7 0 -17
-9 -20 -20 -4 -11 -10 -18 -15 -15 -5 3 -11 1 -15 -5 -4 -6 -9 -8 -13 -6 -4 2
-8 -12 -10 -32 -1 -20 -7 -39 -14 -43 -16 -10 43 -37 67 -30 35 10 61 35 70
66 5 17 8 33 7 38 -1 4 5 24 13 43 18 45 18 44 0 44 -13 0 -14 2 -3 14 7 8 16
12 20 10 4 -3 10 18 14 46 4 27 10 50 14 50 4 0 13 26 20 58 7 31 17 62 22 69
5 7 7 21 3 32 -3 10 -2 22 3 25 11 7 6 66 -7 79 -6 6 -8 2 -4 -12z"/>
<path d="M21044 35887 c3 -22 0 -27 -12 -22 -8 3 -21 0 -28 -6 -11 -9 -14 -8
-14 6 0 17 -1 17 -20 0 -18 -16 -20 -16 -20 -2 0 10 -4 17 -10 17 -5 0 -10 -4
-10 -9 0 -5 -7 -12 -16 -15 -14 -5 -15 -4 -4 9 7 9 10 18 6 22 -3 3 -6 1 -6
-5 0 -6 -16 -14 -35 -18 -19 -3 -35 -10 -35 -15 0 -5 -10 -9 -21 -9 -17 0 -19
-3 -10 -14 10 -12 8 -16 -10 -21 -14 -5 -25 -2 -30 6 -7 11 -11 11 -17 2 -6
-10 -12 -10 -28 2 -25 19 -34 19 -34 -1 0 -12 -5 -11 -19 7 l-20 24 -10 -25
c-5 -14 -10 -20 -10 -13 -1 6 -14 11 -30 11 -24 -1 -28 -4 -23 -22 4 -17 2
-19 -9 -8 -7 6 -21 12 -30 12 -9 0 -19 9 -22 20 -7 25 -27 26 -27 1 0 -10 -6
-24 -14 -30 -11 -10 -15 -8 -19 6 -4 16 -6 15 -12 -4 -4 -13 -11 -21 -15 -18
-5 3 -6 -3 -3 -13 7 -27 -21 -47 -37 -27 -7 8 -18 15 -25 15 -7 0 -16 8 -19
17 -4 10 -10 13 -14 7 -10 -14 -75 -44 -84 -38 -4 3 -5 12 -2 22 5 14 3 14 -6
-2 -10 -14 -14 -15 -20 -5 -7 10 -11 10 -24 0 -12 -10 -16 -10 -16 -1 0 18
-69 5 -85 -16 -25 -35 -27 -77 -9 -199 7 -49 7 -59 -1 -87 -4 -18 -3 -28 3
-28 6 0 13 8 15 18 4 15 5 15 6 0 0 -9 -6 -24 -15 -32 -12 -12 -12 -16 -2 -16
10 -1 9 -4 -2 -13 -11 -9 -15 -37 -17 -114 -1 -61 3 -103 8 -103 6 0 7 -6 1
-16 -5 -9 -7 -25 -5 -35 3 -11 0 -26 -7 -34 -6 -8 -9 -19 -5 -25 4 -6 2 -17
-5 -25 -8 -9 -8 -15 0 -20 6 -3 8 -10 5 -15 -3 -4 3 -17 13 -29 15 -18 20 -19
42 -8 14 7 30 28 36 46 6 18 21 41 34 51 17 13 21 24 17 40 -4 17 2 33 24 58
21 23 29 42 27 61 -2 18 2 26 12 26 8 0 21 4 28 9 8 5 19 0 30 -13 17 -21 17
-21 80 40 34 34 62 62 62 63 0 4 -18 6 -82 12 -41 4 -58 10 -58 20 0 15 9 16
115 16 39 0 76 4 83 10 7 7 12 7 12 1 0 -18 48 -2 53 17 3 13 0 17 -9 13 -21
-8 -17 15 6 29 19 12 28 30 13 26 -5 0 -17 3 -27 7 -13 6 -23 3 -31 -8 -18
-25 -26 -21 -15 8 7 19 6 25 -4 25 -8 0 -17 7 -20 16 -3 9 -2 12 5 9 5 -4 15
-2 22 3 18 14 57 21 57 11 0 -5 7 -9 16 -9 10 0 14 6 10 15 -3 8 3 19 14 25
23 12 40 13 21 1 -7 -5 -11 -14 -7 -20 8 -12 74 -5 93 10 7 7 14 6 18 -1 4 -7
16 -3 34 10 16 10 31 17 35 13 3 -3 6 0 6 8 0 8 3 24 6 36 5 18 -2 25 -41 42
-29 13 -69 21 -102 21 -39 0 -53 4 -50 13 3 8 24 11 68 9 130 -5 160 -9 172
-26 16 -21 123 -28 138 -9 7 7 18 13 25 13 8 0 14 5 14 10 0 6 6 10 14 10 8 0
17 8 20 17 6 14 9 15 15 4 6 -9 10 -7 14 9 3 12 10 19 16 16 13 -8 49 26 43
42 -2 7 5 12 16 12 12 0 23 9 27 21 6 17 9 18 22 7 13 -10 14 -9 11 8 -1 12 3
28 11 37 12 15 11 17 -3 17 -9 0 -19 -7 -22 -15 -8 -19 -24 -20 -24 -1 0 9 -9
14 -20 13 -13 -1 -19 -6 -15 -16 4 -10 2 -11 -7 -4 -18 14 -59 23 -52 12 3 -5
-8 -9 -25 -9 -25 0 -29 -3 -24 -17 6 -16 5 -16 -8 -3 -9 9 -19 22 -22 30 -4 8
-5 2 -3 -13z m-579 -127 c3 -5 1 -10 -4 -10 -6 0 -11 5 -11 10 0 6 2 10 4 10
3 0 8 -4 11 -10z m165 -60 c0 -6 -11 -15 -25 -20 -70 -26 -120 -54 -146 -81
-32 -33 -39 -35 -39 -13 0 20 87 103 114 109 12 2 35 6 51 8 17 2 33 5 38 6 4
0 7 -4 7 -9z m-140 -205 c4 3 6 -5 2 -17 -5 -21 -6 -21 -13 -2 -4 10 -8 24 -8
29 1 6 3 4 6 -3 2 -6 8 -10 13 -7z m76 -43 c-18 -16 -18 -16 -6 6 6 13 14 21
18 18 3 -4 -2 -14 -12 -24z m-416 -42 c0 -5 -5 -10 -11 -10 -5 0 -7 5 -4 10 3
6 8 10 11 10 2 0 4 -4 4 -10z m84 -116 c3 -8 2 -12 -4 -9 -6 3 -10 10 -10 16
0 14 7 11 14 -7z m-21 -24 c3 -11 1 -18 -4 -14 -5 3 -9 12 -9 20 0 20 7 17 13
-6z"/>
<path d="M20490 35870 c8 -5 20 -10 25 -10 6 0 3 5 -5 10 -8 5 -19 10 -25 10
-5 0 -3 -5 5 -10z"/>
<path d="M20535 35830 c3 -5 8 -10 11 -10 2 0 4 5 4 10 0 6 -5 10 -11 10 -5 0
-7 -4 -4 -10z"/>
<path d="M20270 35760 c0 -5 5 -10 11 -10 5 0 7 5 4 10 -3 6 -8 10 -11 10 -2
0 -4 -4 -4 -10z"/>
<path d="M22911 35321 c-65 -11 -42 -70 28 -71 32 0 33 1 27 32 -8 41 -14 45
-55 39z"/>
<path d="M21375 35243 c-11 -3 -25 -9 -32 -15 -7 -6 -19 -6 -31 1 -18 10 -62
5 -62 -7 0 -16 34 -92 40 -92 5 0 30 -18 58 -39 l49 -39 17 58 c21 71 19 92
-14 101 -14 4 -20 7 -14 8 6 1 11 8 11 16 0 8 -1 14 -1 14 -1 -1 -10 -4 -21
-6z"/>
<path d="M21685 35214 c-22 -16 -61 -18 -70 -4 -10 16 -45 11 -53 -7 -4 -10
-18 -18 -31 -18 -13 0 -27 -7 -31 -15 -16 -32 -29 -67 -45 -121 -12 -40 -24
-61 -42 -70 -14 -8 -28 -22 -32 -32 -6 -17 -8 -17 -30 3 -13 11 -29 20 -34 20
-6 0 -8 3 -4 6 7 7 -58 74 -73 74 -6 0 -8 5 -5 10 3 6 -5 14 -19 20 -14 5 -26
17 -26 27 0 14 -2 15 -9 4 -6 -9 -11 -10 -15 -2 -11 17 -49 14 -42 -4 3 -9 0
-15 -8 -15 -8 0 -17 -16 -21 -37 -3 -20 -10 -32 -13 -26 -7 11 -46 33 -57 33
-4 0 -5 -6 -2 -14 7 -19 -28 -50 -48 -43 -8 4 -15 2 -15 -2 0 -19 35 -22 47
-5 16 21 19 18 28 -26 6 -29 5 -33 -6 -22 -21 20 -31 14 -15 -10 8 -13 17 -34
21 -48 4 -14 17 -33 29 -43 24 -22 32 -97 10 -97 -8 0 -14 -4 -14 -9 0 -5 -16
-8 -35 -7 -42 4 -41 8 -32 -134 1 -25 -2 -53 -8 -63 -7 -13 -6 -20 3 -25 6 -5
12 -19 11 -33 -1 -30 4 -48 19 -76 7 -12 12 -31 12 -42 0 -28 11 -52 21 -45 5
3 9 1 9 -5 0 -5 3 -18 6 -28 4 -13 3 -15 -4 -4 -7 10 -11 10 -17 1 -4 -6 -2
-17 4 -23 14 -14 15 -30 1 -22 -5 3 -10 -1 -10 -9 0 -8 5 -18 11 -22 6 -3 8
-16 5 -28 -3 -12 0 -40 6 -62 6 -21 11 -45 9 -51 -1 -7 2 -13 7 -13 5 0 10 -6
11 -12 24 -168 24 -166 49 -171 14 -3 55 -1 91 4 110 14 274 40 281 44 3 2 76
13 161 24 85 12 199 30 254 41 141 27 437 89 457 96 10 3 30 8 45 10 16 3 50
12 76 21 41 13 47 18 41 37 -4 11 -10 23 -14 26 -3 3 -12 26 -20 53 -10 39
-16 46 -31 42 -16 -5 -19 -1 -19 22 0 25 -5 30 -40 40 -29 7 -40 7 -40 -1 0
-6 -4 -4 -10 4 -5 9 -5 19 1 26 6 7 4 16 -6 24 -20 17 -20 64 0 56 19 -7 19
-2 -1 36 -9 16 -11 27 -6 24 17 -10 22 10 9 37 -11 23 -68 57 -97 57 -7 0 -10
8 -8 18 5 18 -13 54 -26 53 -8 -1 -48 34 -101 87 l-43 43 -31 -16 c-30 -15
-33 -15 -71 8 -22 13 -37 27 -33 30 3 4 1 7 -6 7 -18 0 -52 88 -54 143 -2 38
-7 52 -22 61 -39 22 -62 86 -42 118 9 14 9 23 -1 38 -6 11 -12 26 -12 34 0 10
-9 13 -32 9 -18 -3 -35 -6 -37 -8 -1 -2 -13 0 -25 5 -14 5 -28 3 -41 -6z
m-545 -158 c0 -3 -4 -8 -10 -11 -5 -3 -10 -1 -10 4 0 6 5 11 10 11 6 0 10 -2
10 -4z m44 -21 c-4 -8 -11 -12 -16 -9 -6 4 -5 10 3 15 19 12 19 11 13 -6z
m-124 -26 c0 -6 -4 -7 -10 -4 -5 3 -10 11 -10 16 0 6 5 7 10 4 6 -3 10 -11 10
-16z m20 -23 c0 -3 -4 -8 -10 -11 -5 -3 -10 -1 -10 4 0 6 5 11 10 11 6 0 10
-2 10 -4z m21 -39 c-13 -13 -26 -3 -16 12 3 6 11 8 17 5 6 -4 6 -10 -1 -17z
m29 -16 c0 -5 -7 -12 -16 -15 -14 -5 -15 -4 -4 9 14 17 20 19 20 6z m-67 -35
c4 -10 1 -13 -9 -9 -15 6 -19 23 -5 23 5 0 11 -7 14 -14z m357 -6 c0 -5 -9
-10 -19 -10 -11 0 -23 5 -26 10 -4 6 5 10 19 10 14 0 26 -4 26 -10z m-230 -10
c0 -5 -2 -10 -4 -10 -3 0 -8 5 -11 10 -3 6 -1 10 4 10 6 0 11 -4 11 -10z m-65
-51 c11 -17 -1 -21 -15 -4 -8 9 -8 15 -2 15 6 0 14 -5 17 -11z m75 -34 c-7 -9
-15 -13 -17 -11 -7 7 7 26 19 26 6 0 6 -6 -2 -15z m-150 -85 c0 -5 -7 -7 -15
-4 -8 4 -15 8 -15 10 0 2 7 4 15 4 8 0 15 -4 15 -10z m190 -55 c0 -8 -6 -15
-14 -15 -8 0 -16 -6 -19 -12 -2 -7 -7 -10 -11 -7 -5 5 29 49 39 49 3 0 5 -7 5
-15z m1120 -345 c0 -5 -2 -10 -4 -10 -3 0 -8 5 -11 10 -3 6 -1 10 4 10 6 0 11
-4 11 -10z m-6 -82 c-4 -6 -10 -5 -15 3 -14 22 -10 33 6 19 8 -7 12 -17 9 -22z"/>
<path d="M21960 35130 c0 -5 -7 -10 -15 -10 -10 0 -15 -10 -15 -31 0 -20 4
-29 13 -26 6 2 11 10 9 16 -1 7 4 19 13 27 17 18 20 34 5 34 -5 0 -10 -4 -10
-10z"/>
<path d="M22073 35077 c4 -10 7 -25 7 -33 0 -8 5 -14 10 -14 16 0 11 36 -7 51
-15 12 -16 12 -10 -4z"/>
<path d="M20965 35030 c3 -5 10 -10 16 -10 5 0 9 5 9 10 0 6 -7 10 -16 10 -8
0 -12 -4 -9 -10z"/>
<path d="M20925 35009 c-11 -17 1 -21 15 -4 8 9 8 15 2 15 -6 0 -14 -5 -17
-11z"/>
<path d="M20930 34971 c0 -5 7 -11 15 -15 27 -10 16 -21 -20 -21 -19 0 -34 5
-31 10 2 6 -20 11 -50 13 -30 2 -54 -1 -54 -5 0 -4 17 -24 36 -43 l35 -35 24
28 c26 30 35 33 52 16 13 -13 6 -42 -8 -33 -5 3 -9 0 -9 -5 0 -6 11 -11 24
-11 19 0 23 4 19 20 -3 11 0 20 6 20 6 0 11 -8 12 -17 0 -10 3 -13 5 -6 3 7 0
21 -6 32 -8 15 -8 21 0 21 6 0 8 5 5 10 -4 6 -10 8 -15 5 -4 -3 -10 2 -14 10
-6 16 -26 21 -26 6z"/>
<path d="M20666 34955 c4 -8 10 -15 15 -15 4 0 6 7 3 15 -4 8 -10 15 -15 15
-4 0 -6 -7 -3 -15z"/>
<path d="M22096 34923 c9 -40 29 -68 70 -100 19 -15 50 -40 67 -55 37 -32 64
-35 84 -10 13 15 13 15 4 -4 -10 -21 -6 -34 12 -34 5 0 7 6 4 13 -2 6 0 22 4
35 8 21 7 23 -13 17 -17 -6 -20 -4 -15 10 4 9 7 23 7 31 0 8 9 14 19 14 11 0
23 4 26 10 3 6 -1 7 -9 4 -9 -4 -16 -1 -16 6 0 6 -6 10 -12 8 -7 -3 -21 4 -32
14 -11 10 -35 18 -53 18 -18 0 -33 5 -33 11 0 6 -7 8 -16 5 -8 -3 -12 -2 -9 4
8 13 -28 30 -65 30 -28 0 -30 -2 -24 -27z"/>
<path d="M21950 34923 c0 -10 9 -31 21 -48 11 -16 24 -40 29 -52 5 -13 14 -23
19 -23 15 0 24 41 12 53 -6 6 -11 19 -11 29 0 20 -37 58 -57 58 -7 0 -13 -8
-13 -17z"/>
<path d="M20647 34866 c-13 -13 -25 -40 -41 -89 -3 -10 -10 -15 -16 -12 -5 3
-10 2 -10 -2 0 -16 24 -33 45 -33 12 0 26 -5 32 -11 5 -5 39 -12 75 -14 61 -3
67 -1 94 25 45 44 60 63 67 83 4 9 16 21 28 26 16 5 19 10 10 15 -7 5 -22 -2
-36 -18 -35 -38 -76 -35 -116 9 -30 33 -33 34 -50 19 -19 -17 -69 -28 -69 -15
0 4 5 12 12 19 8 8 9 12 1 12 -6 0 -18 -6 -26 -14z"/>
<path d="M22433 34839 c1 -10 5 -15 10 -12 4 2 15 -1 23 -8 19 -15 40 2 31 26
-9 22 -66 17 -64 -6z"/>
<path d="M22355 34750 c3 -5 8 -10 11 -10 2 0 4 5 4 10 0 6 -5 10 -11 10 -5 0
-7 -4 -4 -10z"/>
<path d="M22360 34690 c0 -5 5 -10 10 -10 6 0 10 5 10 10 0 6 -4 10 -10 10 -5
0 -10 -4 -10 -10z"/>
<path d="M23335 34420 c-18 -29 -23 -69 -9 -74 19 -7 18 -24 -3 -22 -10 0 -19
-10 -24 -28 -5 -17 -7 -32 -5 -34 2 -2 19 1 37 6 24 6 35 15 37 30 2 12 -2 22
-8 22 -11 0 -7 61 5 80 3 4 -2 13 -9 19 -10 9 -16 9 -21 1z"/>
<path d="M22390 34361 c0 -10 31 -31 45 -31 11 0 -5 20 -26 30 -12 7 -19 7
-19 1z"/>
<path d="M22585 34160 c3 -5 11 -10 16 -10 6 0 7 5 4 10 -3 6 -11 10 -16 10
-6 0 -7 -4 -4 -10z"/>
<path d="M18850 33924 c0 -14 4 -23 9 -20 5 3 7 15 4 26 -7 28 -13 25 -13 -6z"/>
<path d="M20212 32869 c1 -12 9 -24 16 -27 9 -3 13 3 10 19 -1 12 -9 24 -16
27 -9 3 -13 -3 -10 -19z"/>
<path d="M22765 32420 c-3 -6 1 -17 9 -26 9 -8 16 -18 16 -22 0 -4 18 -27 40
-52 22 -24 40 -47 40 -51 0 -4 18 -27 40 -51 23 -23 48 -60 57 -80 9 -21 20
-38 23 -38 15 0 51 -91 44 -112 -3 -13 -3 -20 1 -16 6 6 36 103 50 163 6 27
-4 57 -17 49 -6 -4 -9 -1 -6 7 3 8 -4 22 -15 31 -11 10 -17 24 -13 33 3 9 2
13 -4 10 -6 -3 -10 -1 -10 5 0 6 -4 9 -9 5 -5 -3 -11 5 -13 17 -2 13 -9 24
-15 24 -26 3 -28 5 -13 14 13 9 13 10 0 11 -8 1 -19 1 -23 0 -9 -1 -80 50 -85
61 -2 4 -9 5 -16 2 -7 -3 -19 2 -26 11 -14 17 -46 20 -55 5z"/>
<path d="M13168 32074 c-16 -8 -28 -17 -28 -19 0 -6 63 16 75 26 15 15 -17 10
-47 -7z"/>
<path d="M25819 32074 c-1 -10 -1 -25 0 -31 1 -7 -3 -13 -9 -13 -5 0 -10 -7
-10 -16 0 -8 5 -12 10 -9 6 4 1 -17 -10 -45 -11 -28 -20 -59 -20 -69 0 -17
-21 -69 -41 -101 -18 -29 -49 -89 -49 -95 0 -9 54 -4 88 9 29 10 37 20 53 70
18 52 22 146 8 161 -3 2 -2 31 1 64 4 41 2 65 -7 77 -12 17 -13 17 -14 -2z"/>
<path d="M13083 32039 c-18 -5 -33 -14 -33 -19 0 -6 17 -3 37 5 60 25 58 32
-4 14z"/>
<path d="M13919 31986 c9 -11 29 -16 64 -16 49 0 59 11 14 16 -12 2 -38 6 -57
10 -32 6 -34 5 -21 -10z"/>
<path d="M13683 31982 c-24 -2 -43 -7 -43 -13 0 -10 82 -12 118 -3 31 9 28 23
-5 21 -16 -1 -47 -3 -70 -5z"/>
<path d="M12905 31956 c-22 -12 -40 -29 -40 -37 0 -24 20 -15 54 24 18 20 31
37 30 37 -2 -1 -22 -11 -44 -24z"/>
<path d="M22978 31912 c-25 -26 -54 -63 -64 -82 -11 -19 -28 -44 -39 -56 -35
-37 -59 -69 -77 -100 -38 -68 -68 -128 -68 -135 0 -8 86 -92 99 -97 5 -1 14
12 21 30 7 18 23 57 36 86 13 29 24 57 24 62 0 6 9 29 19 53 45 98 106 275 98
283 -2 2 -24 -18 -49 -44z"/>
<path d="M14127 31909 c7 -7 15 -10 18 -7 3 3 -2 9 -12 12 -14 6 -15 5 -6 -5z"/>
<path d="M14176 31861 c-4 -7 -5 -15 -2 -18 9 -9 19 4 14 18 -4 11 -6 11 -12
0z"/>
<path d="M12340 31840 c0 -11 5 -20 10 -20 6 0 10 9 10 20 0 11 -4 20 -10 20
-5 0 -10 -9 -10 -20z"/>
<path d="M21559 31740 c-5 -112 -4 -169 3 -175 24 -24 160 67 143 95 -5 8 -4
11 2 7 6 -4 13 2 16 13 3 11 2 18 -2 16 -8 -5 -87 64 -83 72 2 4 -2 8 -9 11
-7 2 -9 -1 -5 -8 5 -7 1 -9 -8 -5 -9 3 -13 10 -10 15 3 5 0 9 -6 9 -6 0 -14
-8 -17 -17 -6 -15 -7 -15 -14 3 -5 13 -8 1 -10 -36z"/>
<path d="M12271 31753 c-17 -36 1 -51 23 -18 16 24 14 45 -3 45 -4 0 -13 -12
-20 -27z"/>
<path d="M14348 31713 c6 -2 18 -2 25 0 6 3 1 5 -13 5 -14 0 -19 -2 -12 -5z"/>
<path d="M14442 31703 c-12 -2 -20 -8 -17 -13 3 -5 20 -7 37 -3 27 5 30 4 24
-14 -5 -16 -1 -22 20 -27 31 -8 37 -5 28 17 -5 13 -64 52 -68 46 -1 -1 -11 -4
-24 -6z"/>
<path d="M14575 31640 c3 -5 13 -10 21 -10 8 0 14 5 14 10 0 6 -9 10 -21 10
-11 0 -17 -4 -14 -10z"/>
<path d="M12252 31602 c-14 -9 -35 -73 -26 -81 8 -8 42 40 47 66 4 24 0 28
-21 15z"/>
<path d="M14591 31605 c0 -15 25 -45 38 -45 6 0 11 5 11 10 0 6 -5 10 -11 10
-7 0 -18 8 -25 18 -7 9 -13 13 -13 7z"/>
<path d="M12310 31580 c-9 -6 -10 -10 -3 -10 6 0 15 5 18 10 8 12 4 12 -15 0z"/>
<path d="M12186 31533 c-6 -14 -5 -15 5 -6 7 7 10 15 7 18 -3 3 -9 -2 -12 -12z"/>
<path d="M22682 31490 c-12 -16 -22 -33 -22 -38 0 -5 -7 -15 -15 -22 -8 -7
-34 -47 -57 -89 -23 -42 -52 -92 -63 -112 -57 -104 -136 -204 -150 -191 -5 4
-5 1 -1 -6 5 -8 -1 -15 -16 -21 -13 -4 -22 -12 -22 -17 2 -13 -19 -57 -33 -72
-11 -11 -16 -11 -29 2 -8 9 -20 16 -26 16 -6 0 1 -11 17 -24 18 -16 23 -26 16
-31 -7 -4 -20 4 -32 19 -18 22 -23 24 -42 13 -12 -6 -24 -15 -27 -18 -10 -12
-39 -17 -42 -8 -2 5 -16 12 -31 15 -17 3 -26 1 -23 -5 3 -5 -3 -7 -14 -4 -11
3 -20 8 -20 12 0 3 -14 12 -30 20 -25 11 -29 16 -19 28 10 11 10 14 -2 11 -8
-2 -13 4 -13 15 2 21 0 21 -22 0 -16 -17 -17 -16 -12 10 4 20 2 25 -5 18 -16
-16 -27 -13 -21 4 4 9 0 15 -10 15 -10 0 -13 6 -10 15 5 11 -1 15 -20 15 -14
0 -26 5 -26 11 0 6 7 8 18 4 13 -5 14 -3 6 5 -9 9 -18 9 -35 0 -19 -10 -22
-10 -12 0 14 15 6 40 -14 40 -9 0 -12 6 -8 19 7 22 -4 53 -16 45 -11 -6 -39
20 -39 36 0 6 -5 8 -11 5 -5 -4 -22 -4 -36 0 -19 4 -24 11 -20 25 5 21 -7 27
-18 10 -4 -7 -13 -7 -26 0 -16 9 -17 15 -9 33 11 21 10 21 -4 3 -13 -16 -18
-17 -31 -6 -12 10 -21 10 -40 2 -14 -7 -25 -8 -25 -3 0 17 -58 71 -77 71 -21
-1 -57 -45 -48 -60 3 -6 2 -10 -3 -10 -5 0 -14 -25 -20 -55 -11 -51 -9 -60 15
-118 15 -34 32 -65 38 -69 6 -3 24 -19 40 -35 19 -18 63 -40 114 -56 45 -15
106 -41 134 -56 29 -16 63 -32 77 -36 36 -10 198 -73 245 -95 70 -33 162 -69
232 -91 37 -12 105 -34 151 -50 46 -16 87 -29 93 -29 10 0 13 43 3 53 -4 4 -8
21 -9 39 -2 17 -9 37 -17 42 -16 13 -9 89 9 107 6 6 9 18 6 25 -3 8 -1 14 4
14 6 0 18 18 28 40 10 22 22 40 27 40 5 0 7 4 4 9 -4 5 -2 11 3 13 5 1 11 10
13 18 2 8 6 17 9 20 3 3 25 50 48 105 23 55 57 123 74 150 18 28 39 62 46 78
8 15 18 27 23 27 4 0 8 10 8 23 0 20 -84 117 -101 117 -3 0 -15 -13 -27 -30z
m-1072 -220 c0 -5 -7 -7 -15 -4 -8 4 -12 10 -9 15 6 11 24 2 24 -11z m280
-230 c0 -5 -8 -10 -17 -10 -15 0 -16 2 -3 10 19 12 20 12 20 0z"/>
<path d="M24630 31506 c0 -24 17 -28 23 -6 3 13 0 20 -9 20 -8 0 -14 -6 -14
-14z"/>
<path d="M24579 31493 c-1 -4 -1 -23 -1 -40 0 -18 -4 -35 -9 -38 -16 -10 -10
-53 9 -64 16 -10 16 -10 0 -11 -10 0 -19 -6 -19 -12 -1 -7 -3 -22 -5 -33 -4
-25 -11 -84 -13 -108 -1 -10 -5 -15 -11 -12 -6 4 -7 -2 -1 -18 9 -23 -12 -87
-28 -87 -8 0 -5 -96 4 -109 3 -6 1 -11 -5 -11 -7 0 -10 -7 -7 -14 4 -9 1 -13
-6 -10 -9 3 -13 -10 -13 -43 -1 -75 -15 -163 -27 -163 -6 0 -8 -3 -5 -6 4 -3
2 -20 -4 -37 -20 -65 -26 -97 -17 -97 14 0 10 -26 -5 -40 -8 -6 -12 -18 -9
-26 3 -8 -1 -14 -11 -14 -16 0 -19 -11 -18 -82 0 -28 -5 -39 -20 -43 -13 -5
-17 -12 -13 -24 3 -10 1 -30 -5 -45 -6 -18 -6 -25 0 -21 6 3 9 -2 7 -12 -4
-29 -18 -45 -33 -39 -9 3 -18 -2 -21 -12 -9 -23 -25 -33 -44 -27 -9 3 -24 -5
-35 -17 -16 -18 -17 -20 -2 -15 9 3 18 2 20 -3 2 -5 23 -11 48 -14 25 -4 63
-11 85 -16 22 -5 54 -10 72 -10 40 0 59 29 104 160 17 52 51 134 74 181 23 47
48 103 55 123 7 21 33 84 60 139 26 56 55 127 65 157 10 30 21 60 25 65 8 10
50 145 50 160 0 4 -6 3 -12 -3 -10 -8 -13 3 -13 51 0 34 -4 71 -9 82 -5 10
-10 28 -11 40 -1 11 -3 25 -4 32 0 6 -11 13 -23 15 -13 2 -21 7 -20 12 2 5 -1
12 -8 16 -6 4 -11 26 -12 50 0 25 -4 37 -8 29 -7 -10 -11 -10 -24 0 -8 7 -20
10 -26 6 -13 -8 -42 14 -35 26 3 4 -10 5 -30 2 -28 -4 -35 -2 -35 10 0 16 -19
34 -21 20z m151 -95 c0 -6 -6 -5 -15 2 -8 7 -15 14 -15 16 0 2 7 1 15 -2 8 -4
15 -11 15 -16z"/>
<path d="M24720 31463 c0 -13 5 -23 10 -23 13 0 13 11 0 30 -8 12 -10 11 -10
-7z"/>
<path d="M24836 31374 c-9 -8 -16 -20 -16 -26 0 -6 9 -1 20 12 29 33 25 44 -4
14z"/>
<path d="M21515 31340 c3 -5 8 -10 11 -10 2 0 4 5 4 10 0 6 -5 10 -11 10 -5 0
-7 -4 -4 -10z"/>
<path d="M14884 31309 c15 -12 30 -18 34 -14 9 8 -26 35 -46 35 -9 0 -4 -8 12
-21z"/>
<path d="M14959 31270 c30 -26 49 -26 26 0 -10 11 -25 20 -34 20 -12 -1 -10
-5 8 -20z"/>
<path d="M11848 31225 c-21 -50 -26 -87 -12 -92 14 -5 37 65 32 102 l-3 30
-17 -40z"/>
<path d="M21705 31240 c3 -5 8 -10 11 -10 2 0 4 5 4 10 0 6 -5 10 -11 10 -5 0
-7 -4 -4 -10z"/>
<path d="M11863 31145 c-3 -9 -3 -18 0 -21 9 -9 27 6 27 22 0 19 -19 18 -27
-1z"/>
<path d="M21360 31071 c0 -20 48 -47 61 -34 11 11 -1 26 -33 40 -25 11 -28 10
-28 -6z"/>
<path d="M20760 30855 c-26 -68 -33 -171 -13 -200 7 -11 13 -36 13 -57 0 -42
4 -45 27 -22 18 18 20 103 5 186 -5 25 -7 59 -5 75 6 39 -14 52 -27 18z"/>
<path d="M11710 30840 c0 -19 3 -21 12 -12 9 9 9 15 0 24 -9 9 -12 7 -12 -12z"/>
<path d="M15260 30832 c0 -5 7 -15 15 -22 8 -7 15 -8 15 -2 0 5 -7 15 -15 22
-8 7 -15 8 -15 2z"/>
<path d="M15350 30800 c0 -19 28 -60 41 -60 16 0 10 18 -16 47 -16 19 -24 23
-25 13z"/>
<path d="M15420 30719 c0 -9 9 -24 20 -34 26 -23 26 -4 0 26 -15 18 -19 20
-20 8z"/>
<path d="M15310 30690 c0 -5 5 -10 10 -10 6 0 10 5 10 10 0 6 -4 10 -10 10 -5
0 -10 -4 -10 -10z"/>
<path d="M11706 30639 c-10 -36 -4 -80 10 -71 7 4 9 23 4 52 -6 41 -7 43 -14
19z"/>
<path d="M25806 30642 c-3 -5 1 -15 9 -22 16 -14 20 -3 6 19 -5 8 -11 9 -15 3z"/>
<path d="M11747 30597 c-11 -29 -9 -53 4 -40 6 6 9 21 7 34 -3 21 -4 22 -11 6z"/>
<path d="M15370 30603 c0 -5 7 -18 15 -29 13 -18 14 -18 8 4 -5 22 -23 41 -23
25z"/>
<path d="M25758 30575 c-10 -13 -18 -30 -18 -38 0 -7 -16 -31 -35 -53 -34 -38
-44 -64 -26 -64 12 0 97 56 125 82 11 10 24 18 29 18 5 0 -1 9 -14 20 -15 12
-17 18 -8 14 10 -3 20 -1 24 5 3 6 1 11 -4 11 -6 0 -10 3 -10 8 3 19 -2 25
-11 12 -6 -10 -10 -11 -10 -2 0 20 -24 13 -42 -13z"/>
<path d="M11548 30574 c-5 -4 -8 -23 -8 -43 1 -30 2 -33 11 -18 11 19 8 73 -3
61z"/>
<path d="M11660 30540 c0 -11 4 -20 10 -20 6 0 6 -9 0 -26 -7 -19 -7 -37 2
-63 13 -40 28 -62 28 -43 0 7 8 12 18 12 16 1 16 1 0 11 -12 6 -18 22 -18 43
0 32 -25 106 -35 106 -3 0 -5 -9 -5 -20z"/>
<path d="M11730 30504 c-12 -29 -6 -59 9 -50 12 8 20 66 9 72 -4 3 -13 -7 -18
-22z"/>
<path d="M11570 30423 c0 -23 5 -45 10 -48 13 -8 13 55 0 75 -7 11 -10 4 -10
-27z"/>
<path d="M11627 30405 c-24 -50 -21 -58 10 -29 21 19 24 28 17 45 -9 19 -11
18 -27 -16z"/>
<path d="M11643 30336 c-18 -6 -33 -16 -33 -22 0 -15 57 -74 65 -66 3 3 5 -4
5 -16 0 -11 7 -27 15 -36 8 -8 15 -19 15 -25 0 -5 4 -12 10 -16 16 -10 -1 108
-18 129 -13 14 -14 20 -4 23 6 3 12 9 12 13 0 18 -35 26 -67 16z"/>
<path d="M25595 30329 c-29 -27 -115 -90 -115 -83 0 5 -7 -2 -16 -15 -12 -16
-19 -19 -24 -11 -10 16 -50 -4 -50 -25 0 -8 -4 -15 -10 -15 -5 0 -10 -7 -10
-15 0 -8 -4 -15 -10 -15 -5 0 -7 7 -4 15 13 34 -25 14 -74 -37 -15 -16 -34
-28 -43 -28 -28 0 -49 -11 -49 -26 0 -12 -5 -11 -25 2 -25 16 -27 16 -46 -5
-18 -19 -38 -26 -62 -22 -5 1 -7 -4 -5 -11 5 -13 165 -41 180 -31 5 2 14 0 21
-5 12 -10 129 -27 253 -37 51 -4 74 -2 81 7 18 22 26 180 12 229 -18 60 -17
82 4 97 9 7 17 20 17 28 0 16 -10 18 -25 3z"/>
<path d="M11632 30050 c0 -14 2 -19 5 -12 2 6 2 18 0 25 -3 6 -5 1 -5 -13z"/>
<path d="M11700 29985 c0 -8 4 -15 10 -15 5 0 7 7 4 15 -4 8 -8 15 -10 15 -2
0 -4 -7 -4 -15z"/>
<path d="M22995 29780 c-3 -5 3 -10 15 -10 12 0 18 5 15 10 -3 6 -10 10 -15
10 -5 0 -12 -4 -15 -10z"/>
<path d="M23080 29770 c0 -5 4 -10 9 -10 6 0 13 5 16 10 3 6 -1 10 -9 10 -9 0
-16 -4 -16 -10z"/>
<path d="M23630 29729 c0 -5 5 -7 10 -4 6 3 10 8 10 11 0 2 -4 4 -10 4 -5 0
-10 -5 -10 -11z"/>
<path d="M16631 29294 c0 -11 3 -14 6 -6 3 7 2 16 -1 19 -3 4 -6 -2 -5 -13z"/>
<path d="M16834 29152 c16 -31 44 -58 51 -50 6 6 -47 77 -58 78 -4 0 -1 -13 7
-28z"/>
<path d="M17100 29068 c1 -33 29 -78 49 -78 14 0 14 15 -2 65 -16 52 -47 61
-47 13z"/>
<path d="M14840 29020 c0 -5 -6 -7 -14 -4 -8 3 -21 -5 -30 -18 -20 -28 -20
-38 -1 -38 8 0 19 -9 25 -20 10 -18 13 -19 26 -5 9 8 19 15 24 15 4 0 10 9 13
20 4 16 2 18 -13 10 -23 -12 -34 2 -25 30 4 11 4 20 1 20 -3 0 -6 -4 -6 -10z"/>
<path d="M14910 28985 c-13 -16 -3 -20 24 -9 9 3 13 10 10 15 -8 13 -20 11
-34 -6z"/>
<path d="M16962 28983 c2 -10 13 -23 26 -29 12 -6 30 -18 40 -27 10 -10 25
-17 33 -17 8 0 20 -5 26 -11 13 -13 33 -4 33 14 0 8 -3 7 -9 -2 -11 -17 -30
-6 -41 25 -5 13 -16 24 -25 24 -8 0 -15 5 -15 10 0 6 -9 10 -19 10 -11 0 -23
5 -26 10 -10 16 -27 11 -23 -7z"/>
<path d="M14634 28905 c-9 -22 1 -29 15 -11 8 10 9 16 1 21 -5 3 -13 -1 -16
-10z"/>
<path d="M17193 28818 c-1 -18 4 -49 9 -68 6 -19 11 -47 10 -62 0 -21 4 -28
17 -28 62 0 63 114 2 167 -34 29 -38 29 -38 -9z"/>
<path d="M26623 28784 c-4 -11 -13 -14 -30 -9 -15 3 -22 2 -19 -4 4 -5 -4 -21
-16 -34 -42 -46 -49 -57 -46 -75 2 -9 -2 -16 -9 -15 -15 3 -6 -24 10 -30 7 -2
4 -3 -5 -2 -10 2 -20 -6 -24 -19 -4 -11 -20 -33 -36 -48 -20 -17 -27 -31 -22
-40 6 -10 4 -10 -9 1 -14 11 -18 10 -28 -13 -7 -14 -17 -26 -22 -26 -5 0 -7
-9 -4 -20 6 -23 -3 -26 -22 -7 -11 10 -12 9 -6 -2 4 -8 2 -17 -6 -22 -10 -6
-11 -9 -1 -9 6 0 12 -5 12 -11 0 -6 -9 -9 -20 -6 -25 7 -41 -13 -33 -43 4 -13
2 -21 -3 -17 -6 3 -9 -17 -7 -51 6 -100 6 -176 0 -204 -8 -40 10 -35 27 7 9
20 22 35 31 35 12 0 15 6 10 20 -5 16 -3 19 11 13 12 -5 15 -3 9 6 -4 8 -2 17
6 22 12 8 12 10 0 18 -10 7 -8 12 9 24 14 9 23 26 23 42 0 21 4 26 17 22 13
-3 20 2 24 17 3 13 17 28 31 34 14 6 25 15 24 19 -4 23 3 35 16 29 10 -3 15
-1 13 7 -2 6 7 28 18 47 15 25 21 49 19 85 -1 28 0 44 2 38 3 -7 10 -13 17
-13 21 0 61 50 58 72 -2 11 5 29 15 41 10 11 14 18 8 15 -13 -8 -38 19 -25 27
6 3 10 1 10 -6 0 -7 3 -10 6 -7 3 4 1 16 -6 27 -7 14 -7 21 0 21 5 0 10 5 10
11 0 6 -7 8 -17 4 -15 -5 -16 -4 -5 6 15 16 16 39 2 39 -6 0 -13 -7 -17 -16z
m-5 -189 c-3 -3 -9 2 -12 12 -6 14 -5 15 5 6 7 -7 10 -15 7 -18z m-58 -109 c0
-3 -4 -8 -10 -11 -5 -3 -10 -1 -10 4 0 6 5 11 10 11 6 0 10 -2 10 -4z"/>
<path d="M15245 28680 c3 -5 13 -10 21 -10 8 0 14 -4 14 -10 0 -5 5 -10 10
-10 19 0 10 17 -15 28 -32 15 -38 15 -30 2z"/>
<path d="M14237 28574 c-4 -4 -7 -14 -7 -23 0 -11 3 -12 11 -4 6 6 10 16 7 23
-2 6 -7 8 -11 4z"/>
<path d="M8632 28525 c-1 -25 3 -35 13 -35 12 0 14 7 9 28 -10 42 -21 46 -22
7z"/>
<path d="M8492 28469 c4 -34 11 -55 22 -61 9 -5 16 -22 16 -38 0 -38 15 -38
28 0 9 25 8 30 -9 35 -10 4 -19 14 -19 24 0 22 -28 91 -36 91 -4 0 -4 -23 -2
-51z"/>
<path d="M8618 28420 c-6 -33 -16 -60 -21 -60 -14 0 -36 -32 -37 -53 0 -9 -6
-26 -12 -38 -11 -17 -10 -22 5 -33 9 -7 17 -20 17 -27 0 -14 38 -44 46 -36 7
7 -22 57 -41 71 -10 7 -16 19 -13 26 5 17 54 -27 67 -61 8 -21 10 -22 16 -6 5
12 2 22 -10 31 -14 10 -16 19 -10 42 5 16 9 47 11 69 1 22 4 59 7 82 9 66 -11
61 -25 -7z"/>
<path d="M8578 28450 c-7 -24 -3 -38 8 -28 3 4 4 17 2 30 l-3 23 -7 -25z"/>
<path d="M15260 28450 c14 -10 27 -17 29 -14 6 5 -31 33 -44 33 -5 1 1 -8 15
-19z"/>
<path d="M8700 28440 c0 -5 5 -10 10 -10 6 0 10 5 10 10 0 6 -4 10 -10 10 -5
0 -10 -4 -10 -10z"/>
<path d="M11685 28421 c-3 -5 -1 -12 5 -16 5 -3 10 1 10 9 0 18 -6 21 -15 7z"/>
<path d="M8695 28399 c-4 -6 -5 -12 -2 -15 2 -3 7 2 10 11 7 17 1 20 -8 4z"/>
<path d="M11765 28385 c-5 -11 -17 -27 -27 -36 -22 -19 -23 -29 -4 -29 18 0
48 47 43 68 -3 15 -5 14 -12 -3z"/>
<path d="M8675 28320 c-3 -5 -1 -10 4 -10 6 0 11 5 11 10 0 6 -2 10 -4 10 -3
0 -8 -4 -11 -10z"/>
<path d="M11610 28320 c-9 -6 -10 -10 -3 -10 6 0 15 5 18 10 8 12 4 12 -15 0z"/>
<path d="M11666 28313 c-11 -11 -6 -23 9 -23 8 0 15 4 15 9 0 13 -16 22 -24
14z"/>
<path d="M11639 28254 c-7 -9 -21 -13 -33 -10 -18 5 -18 3 4 -14 14 -11 21
-20 16 -20 -12 0 14 -30 27 -30 6 0 7 3 4 7 -4 3 1 12 11 20 12 10 13 16 5 19
-7 3 -10 11 -7 19 8 20 -12 27 -27 9z"/>
<path d="M11706 28245 c4 -8 8 -15 10 -15 2 0 4 7 4 15 0 8 -4 15 -10 15 -5 0
-7 -7 -4 -15z"/>
<path d="M11670 28190 c0 -13 20 -13 40 0 12 8 9 10 -12 10 -16 0 -28 -4 -28
-10z"/>
<path d="M11572 28150 c-12 -20 -17 -60 -6 -60 3 0 21 16 40 35 20 20 28 35
20 35 -8 0 -20 2 -28 5 -7 3 -19 -4 -26 -15z"/>
<path d="M15175 28115 c4 -22 12 -46 17 -53 8 -9 8 -16 0 -24 -15 -15 -15 -45
-1 -54 6 -3 16 -1 22 5 13 13 -8 116 -30 146 -14 18 -14 17 -8 -20z"/>
<path d="M11736 28091 c-17 -19 -17 -21 -2 -27 22 -8 28 -1 24 26 l-3 22 -19
-21z"/>
<path d="M11838 28099 c-26 -14 -23 -32 2 -19 18 10 24 7 22 -11 -1 -4 8 -9
18 -12 26 -7 25 5 -2 31 -17 15 -27 18 -40 11z"/>
<path d="M15230 28075 c1 -26 2 -28 11 -12 8 14 8 22 0 30 -8 8 -11 3 -11 -18z"/>
<path d="M11952 28069 c-7 -11 -17 -17 -22 -14 -6 3 -10 -5 -10 -19 0 -28 -24
-36 -34 -11 -7 20 -52 3 -48 -18 1 -9 -7 -21 -18 -27 -13 -7 -20 -21 -20 -41
l0 -30 28 17 c27 16 30 15 50 -2 12 -10 22 -23 22 -28 0 -5 -3 -6 -7 -3 -3 4
-12 2 -19 -4 -17 -14 -35 -3 -27 18 7 18 -8 12 -39 -15 -14 -12 -21 -12 -32
-3 -16 13 -56 -1 -56 -19 0 -16 -28 -11 -38 6 -8 14 -10 14 -25 -1 -10 -9 -17
-21 -17 -26 0 -14 44 -11 86 7 22 10 58 16 82 15 43 -2 108 14 126 30 5 5 4
14 -2 22 -7 8 -9 17 -5 20 6 7 12 43 13 82 1 11 8 27 17 37 9 10 14 20 12 23
-3 2 -10 -5 -17 -16z m-42 -88 c0 -5 -7 -14 -15 -21 -16 -14 -18 -10 -9 14 6
17 24 22 24 7z"/>
<path d="M11495 28070 c-3 -5 -2 -10 4 -10 5 0 13 5 16 10 3 6 2 10 -4 10 -5
0 -13 -4 -16 -10z"/>
<path d="M11730 28021 c-7 -15 -6 -23 6 -35 8 -9 13 -20 9 -25 -3 -5 0 -13 6
-17 9 -5 10 1 5 22 -4 16 -8 39 -9 52 -1 27 -3 27 -17 3z"/>
<path d="M11770 28029 c0 -5 5 -7 10 -4 6 3 10 8 10 11 0 2 -4 4 -10 4 -5 0
-10 -5 -10 -11z"/>
<path d="M11419 28003 c-7 -37 -3 -63 9 -68 21 -8 27 2 12 20 -10 12 -9 16 4
21 23 9 20 34 -4 34 -11 0 -21 -3 -21 -7z"/>
<path d="M15082 27990 c0 -14 2 -19 5 -12 2 6 2 18 0 25 -3 6 -5 1 -5 -13z"/>
<path d="M11773 27979 c8 -13 15 -15 24 -7 20 16 16 26 -11 26 -21 0 -23 -3
-13 -19z"/>
<path d="M11552 27965 c0 -16 2 -22 5 -12 2 9 2 23 0 30 -3 6 -5 -1 -5 -18z"/>
<path d="M11468 27943 c-17 -21 -22 -67 -6 -57 6 4 9 1 6 -7 -7 -18 29 -69 48
-69 8 0 17 7 20 15 8 20 -15 75 -31 75 -18 0 -24 21 -13 43 5 9 5 17 0 17 -5
0 -16 -8 -24 -17z"/>
<path d="M11686 27945 c7 -18 30 -20 40 -2 4 6 4 9 -1 5 -4 -4 -16 -3 -26 3
-15 7 -17 6 -13 -6z"/>
<path d="M12065 27910 l-20 -9 20 0 c11 0 27 4 35 9 13 9 13 10 0 9 -8 0 -24
-4 -35 -9z"/>
<path d="M15105 27896 c-6 -13 -3 -23 7 -30 9 -7 26 -30 38 -53 28 -54 50 -74
50 -45 0 12 -4 24 -10 27 -5 3 -10 19 -10 36 0 24 -4 29 -24 29 -18 0 -27 8
-34 28 -9 24 -10 25 -17 8z"/>
<path d="M8611 27834 c0 -11 3 -14 6 -6 3 7 2 16 -1 19 -3 4 -6 -2 -5 -13z"/>
<path d="M8483 27824 c-3 -9 -1 -25 6 -36 7 -11 9 -28 6 -39 -6 -18 -5 -19 13
-8 20 13 22 24 9 46 -4 6 -5 18 -1 26 3 8 -2 17 -11 21 -9 3 -18 -1 -22 -10z"/>
<path d="M15126 27790 c3 -14 11 -32 16 -40 6 -10 7 -7 2 10 -3 14 -11 32 -16
40 -6 10 -7 7 -2 -10z"/>
<path d="M11530 27781 c0 -10 19 -25 25 -20 1 2 -3 10 -11 17 -8 7 -14 8 -14
3z"/>
<path d="M11610 27762 c0 -12 19 -26 26 -19 2 2 -2 10 -11 17 -9 8 -15 8 -15
2z"/>
<path d="M26334 27736 c-3 -9 -11 -13 -17 -9 -6 4 -8 0 -4 -10 3 -10 2 -17 -3
-17 -11 0 -9 -28 3 -48 6 -9 13 -9 28 -2 13 7 19 7 19 0 0 -5 5 -10 10 -10 6
0 8 11 4 25 -4 15 -2 25 5 25 6 0 11 9 11 21 0 19 -1 19 -16 5 -8 -9 -21 -16
-27 -15 -9 0 -8 2 1 6 15 6 16 29 2 38 -6 3 -13 -1 -16 -9z"/>
<path d="M11600 27730 c0 -4 -3 -15 -6 -23 -3 -10 2 -18 15 -22 11 -3 18 -12
15 -19 -3 -7 5 -24 16 -37 18 -20 20 -21 14 -4 -4 11 -8 37 -8 59 -1 31 -6 40
-23 47 -13 5 -23 4 -23 -1z"/>
<path d="M26410 27710 c0 -5 5 -10 10 -10 6 0 10 5 10 10 0 6 -4 10 -10 10 -5
0 -10 -4 -10 -10z"/>
<path d="M26290 27629 c0 -5 5 -9 10 -9 6 0 10 -5 10 -11 0 -5 -4 -8 -9 -5 -9
6 -21 -26 -21 -60 0 -27 34 -58 55 -50 10 4 14 2 9 -5 -4 -7 -1 -10 7 -7 8 3
15 10 15 16 1 7 2 15 3 19 0 4 8 -2 17 -13 15 -19 15 -18 11 3 -3 13 -1 25 4
28 4 3 6 12 2 20 -3 8 0 15 6 15 6 0 11 -4 11 -10 0 -5 5 -10 10 -10 22 0 8
19 -22 30 -25 10 -28 14 -15 17 9 3 17 8 17 13 0 11 -26 20 -34 12 -12 -11
-36 -10 -36 1 0 7 -11 13 -25 13 -14 1 -25 -2 -25 -7z"/>
<path d="M26470 27610 c0 -5 5 -10 10 -10 6 0 10 5 10 10 0 6 -4 10 -10 10 -5
0 -10 -4 -10 -10z"/>
<path d="M11705 27598 c-10 -24 2 -55 16 -41 6 6 6 18 0 34 -8 21 -10 22 -16
7z"/>
<path d="M8032 27559 c-34 -13 -25 -43 14 -47 34 -3 58 17 48 42 -7 18 -27 20
-62 5z"/>
<path d="M11726 27495 c4 -8 10 -15 15 -15 5 0 9 -8 10 -17 0 -10 3 -13 5 -6
6 14 -13 53 -26 53 -5 0 -7 -7 -4 -15z"/>
<path d="M15226 27447 c3 -10 9 -15 12 -12 3 3 0 11 -7 18 -10 9 -11 8 -5 -6z"/>
<path d="M11825 27408 c4 -39 46 -110 98 -168 27 -30 54 -57 59 -59 12 -4 -18
45 -48 79 -12 14 -36 52 -54 85 -41 76 -58 96 -55 63z"/>
<path d="M15140 27424 c0 -17 37 -60 45 -53 3 4 -5 20 -19 35 -14 16 -26 24
-26 18z"/>
<path d="M15190 27346 c0 -2 7 -9 15 -16 12 -10 15 -10 15 4 0 9 -7 16 -15 16
-8 0 -15 -2 -15 -4z"/>
<path d="M10485 27242 c6 -4 11 -15 11 -24 2 -18 -7 -22 -34 -19 -8 1 -21 -4
-29 -11 -12 -10 -17 -10 -20 -1 -8 22 -33 2 -28 -21 7 -28 -29 -53 -51 -35 -8
6 -12 14 -9 17 2 3 11 0 19 -7 11 -9 15 -8 20 5 4 11 2 15 -7 11 -7 -3 -23 6
-36 19 -13 13 -30 24 -38 24 -11 0 -8 -6 9 -19 19 -15 24 -27 20 -50 -4 -26
13 -48 38 -49 31 -2 55 -32 26 -32 -22 0 -30 -19 -16 -35 7 -8 10 -15 6 -15
-11 0 75 -79 93 -85 10 -3 24 -19 32 -37 10 -23 22 -32 43 -34 15 -2 31 -5 34
-8 3 -3 -14 -4 -37 -2 l-43 4 6 -32 c3 -17 17 -41 30 -52 14 -12 22 -24 20
-27 -3 -3 10 -28 30 -57 19 -28 40 -68 45 -87 6 -20 28 -62 51 -94 22 -31 40
-63 40 -69 0 -7 10 -26 22 -43 25 -35 28 -47 16 -63 -11 -15 24 -17 264 -18
181 -1 252 6 211 21 -7 3 -13 11 -13 19 0 8 6 11 15 8 11 -5 13 -2 9 10 -4 9
-12 15 -18 13 -6 -2 -21 10 -33 27 -19 24 -23 43 -23 97 0 47 -4 70 -15 79 -8
7 -15 22 -15 34 0 37 -62 136 -85 136 -3 0 -21 15 -40 33 -28 27 -34 40 -33
75 0 26 -6 50 -16 61 -9 10 -16 22 -16 27 0 5 -12 23 -27 39 l-28 30 -6 -50
c-3 -28 -4 -82 -2 -122 4 -71 4 -72 -25 -87 -49 -25 -59 -2 -68 154 -5 87 -9
107 -26 122 -11 9 -17 22 -13 28 6 9 2 9 -14 0 -19 -10 -25 -8 -43 12 -16 19
-29 23 -71 22 -63 0 -107 -11 -107 -25 0 -5 -12 -21 -27 -34 l-28 -23 20 -22
c20 -23 20 -23 0 -17 -11 3 -32 8 -46 11 -38 8 -46 54 -13 66 17 7 24 17 24
36 0 19 4 25 14 21 9 -4 28 7 45 22 30 28 68 41 123 41 40 0 31 25 -10 26 -17
0 -37 6 -46 13 -9 7 -22 11 -30 8 -10 -4 -13 -1 -10 8 3 7 -4 18 -15 24 -22
12 -41 15 -26 3z m180 -332 c3 -5 2 -10 -4 -10 -5 0 -13 5 -16 10 -3 6 -2 10
4 10 5 0 13 -4 16 -10z m-45 -40 c8 -5 11 -12 7 -16 -4 -4 -15 0 -24 9 -18 18
-8 23 17 7z"/>
<path d="M10450 27230 c-8 -5 -12 -12 -9 -15 4 -3 12 1 19 10 14 17 11 19 -10
5z"/>
<path d="M15198 27202 c-4 -12 0 -26 8 -33 22 -18 27 -4 11 26 -13 26 -14 27
-19 7z"/>
<path d="M9150 27160 c0 -5 5 -10 11 -10 5 0 7 5 4 10 -3 6 -8 10 -11 10 -2 0
-4 -4 -4 -10z"/>
<path d="M9184 27161 c-12 -12 0 -17 31 -13 43 5 47 22 4 19 -17 -1 -32 -4
-35 -6z"/>
<path d="M8943 27140 c-1 -12 5 -18 17 -17 19 1 48 37 30 37 -5 0 -10 -5 -10
-10 0 -7 -6 -7 -18 -1 -14 7 -18 6 -19 -9z"/>
<path d="M12001 27123 c29 -51 71 -105 77 -98 3 3 -2 13 -11 23 -10 10 -17 24
-17 31 0 15 -49 81 -61 81 -5 0 1 -17 12 -37z"/>
<path d="M9020 27143 c5 -2 8 -9 4 -14 -3 -5 0 -9 6 -9 15 0 7 23 -8 26 -7 1
-8 0 -2 -3z"/>
<path d="M12449 27100 c-1 -27 -2 -63 -3 -79 -1 -28 0 -28 17 -14 9 9 17 24
17 35 0 10 9 27 20 38 23 23 26 40 6 40 -7 0 -19 7 -26 15 -22 26 -30 17 -31
-35z"/>
<path d="M15265 27130 c-11 -5 -15 -9 -9 -9 7 -1 14 -9 16 -18 3 -13 15 -18
39 -18 27 0 34 4 34 20 0 12 -7 20 -17 20 -9 0 -20 4 -24 8 -9 8 -13 8 -39 -3z"/>
<path d="M8880 27110 c6 -11 15 -20 20 -20 17 0 11 15 -11 28 -19 12 -19 11
-9 -8z"/>
<path d="M9097 27110 c7 -25 19 -26 27 -3 6 15 8 15 16 3 5 -8 12 -11 17 -7
10 11 -16 27 -44 27 -16 0 -20 -5 -16 -20z"/>
<path d="M15016 27099 c-14 -68 -14 -84 2 -96 13 -9 14 -12 3 -13 -20 0 14
-36 52 -55 33 -17 48 -19 46 -7 -4 21 2 24 14 7 8 -10 19 -15 25 -11 17 10 15
26 -3 26 -8 0 -12 6 -9 13 3 8 -16 33 -42 58 -25 24 -54 57 -64 73 l-19 29 -5
-24z m44 -72 c0 -4 -9 -3 -20 3 -11 6 -17 16 -13 25 5 13 7 13 19 -2 7 -10 14
-22 14 -26z"/>
<path d="M15195 27090 c4 -14 11 -32 16 -40 7 -12 8 -11 8 5 0 11 -7 29 -15
40 -16 19 -16 19 -9 -5z"/>
<path d="M9069 27086 c14 -17 -11 -30 -40 -21 -11 4 -19 2 -19 -4 0 -6 6 -11
14 -11 7 0 27 -7 42 -15 32 -17 64 -20 64 -6 0 5 -11 12 -25 15 -29 7 -33 22
-7 29 16 4 16 5 0 6 -10 0 -18 6 -18 11 0 6 -5 10 -11 10 -8 0 -8 -4 0 -14z"/>
<path d="M9221 27091 c-8 -5 -9 -11 -3 -15 14 -8 43 4 36 15 -7 11 -15 11 -33
0z"/>
<path d="M8806 27066 c-15 -13 -36 -22 -45 -19 -10 2 -23 -3 -30 -11 -8 -9
-19 -16 -25 -16 -6 0 -22 -7 -35 -17 -23 -15 -23 -17 -6 -30 18 -12 17 -13 -5
-13 -22 0 -23 -1 -5 -20 16 -18 14 -25 -7 -21 -13 2 -9 -11 9 -31 9 -11 11
-18 5 -18 -7 0 -12 5 -12 11 0 30 -30 -18 -50 -80 -26 -78 -22 -106 12 -95
l21 6 -21 -36 -21 -36 37 0 c21 0 42 -4 48 -10 5 -5 20 -11 34 -13 31 -5 68
-64 45 -73 -8 -3 -29 3 -47 14 -70 42 -170 31 -193 -21 -6 -12 -25 -26 -42
-32 -40 -11 -42 -22 -7 -35 33 -13 34 -13 34 6 0 11 6 15 20 11 13 -3 20 0 20
9 0 8 5 14 10 14 16 0 11 -26 -8 -43 -10 -10 -28 -17 -40 -17 -11 0 -24 -5
-28 -11 -3 -6 -15 -9 -25 -6 -19 5 -44 -15 -32 -26 3 -4 21 -7 38 -7 17 0 75
-7 128 -14 53 -8 134 -18 181 -22 l84 -7 26 49 c28 53 35 64 84 137 17 27 32
57 32 68 0 10 5 21 10 24 15 10 12 35 -5 35 -8 0 -15 5 -15 10 0 7 6 7 19 0
17 -8 24 -4 49 34 24 35 27 46 16 50 -22 8 -16 25 11 32 28 7 34 34 7 34 -10
0 -29 8 -42 17 -14 10 -34 16 -45 14 -11 -1 -18 -1 -15 2 3 3 14 7 25 9 11 1
23 8 27 13 5 6 8 4 8 -5 0 -10 12 -16 35 -17 19 -2 35 2 35 7 0 6 7 10 15 10
8 0 15 5 15 10 0 6 -4 10 -9 10 -5 0 -18 3 -28 7 -16 6 -16 5 -4 -10 11 -14
11 -18 -2 -23 -9 -3 -21 -3 -27 1 -14 9 -13 32 3 38 7 3 1 9 -15 15 -36 15
-42 29 -18 42 17 9 26 8 43 -3 31 -20 74 -26 92 -13 8 6 21 24 29 40 12 24 12
31 1 42 -7 8 -17 14 -21 14 -5 0 -3 -5 4 -12 7 -7 12 -15 12 -19 0 -10 -34 -6
-42 6 -4 5 -10 6 -15 2 -10 -11 17 -26 35 -20 9 4 13 0 11 -12 -6 -27 -25 -29
-47 -7 -15 15 -23 17 -31 9 -9 -9 -14 -8 -20 2 -6 8 -11 10 -15 3 -4 -7 -21
-4 -49 8 -23 11 -50 20 -60 20 -28 0 -117 41 -111 51 11 18 -22 8 -50 -15z
m140 -89 c14 -2 24 1 24 7 0 6 5 4 10 -4 14 -22 -12 -31 -49 -17 -30 11 -39
26 -23 41 4 4 8 1 10 -7 2 -8 14 -17 28 -20z m-16 -36 c0 -18 -18 -21 -30 -6
-10 13 -9 15 9 15 11 0 21 -4 21 -9z m73 -34 c-35 -10 -68 -3 -58 13 3 6 18 7
32 4 19 -5 24 -4 18 6 -6 9 -2 9 16 -1 l24 -13 -32 -9z m-123 -67 c24 -15 7
-19 -20 -5 -15 8 -19 14 -10 14 8 1 22 -3 30 -9z m70 0 c8 -5 11 -12 8 -16
-10 -9 -38 3 -38 16 0 12 10 13 30 0z m130 -24 c0 -3 -4 -8 -10 -11 -5 -3 -10
-1 -10 4 0 6 5 11 10 11 6 0 10 -2 10 -4z m-402 -36 c-1 -30 -11 -39 -23 -20
-4 7 14 50 22 50 1 0 1 -13 1 -30z m362 20 c0 -5 -9 -10 -20 -10 -11 0 -20 5
-20 10 0 6 9 10 20 10 11 0 20 -4 20 -10z m-247 -245 c-3 -9 -8 -14 -10 -11
-3 3 -2 9 2 15 9 16 15 13 8 -4z"/>
<path d="M8960 27082 c0 -5 7 -9 15 -9 8 0 12 4 9 9 -3 4 -9 8 -15 8 -5 0 -9
-4 -9 -8z"/>
<path d="M15307 27073 c-4 -3 -7 -11 -7 -17 0 -6 5 -5 12 2 6 6 9 14 7 17 -3
3 -9 2 -12 -2z"/>
<path d="M15308 27039 c-10 -5 -15 -16 -12 -24 9 -22 -5 -18 -27 8 -10 12 -18
17 -19 11 0 -7 9 -22 19 -35 l20 -24 21 21 c26 26 24 58 -2 43z"/>
<path d="M12680 27021 c0 -5 10 -16 23 -24 18 -13 19 -16 5 -16 -24 -1 -31
-17 -18 -41 11 -21 40 -28 40 -10 0 6 -5 10 -10 10 -7 0 -7 6 0 19 7 14 7 27
-2 45 -11 24 -38 36 -38 17z"/>
<path d="M15220 26993 c0 -11 7 -26 15 -33 25 -21 29 -3 6 26 -19 24 -21 25
-21 7z"/>
<path d="M12700 26881 c0 -24 18 -37 31 -24 13 13 1 43 -17 43 -8 0 -14 -9
-14 -19z"/>
<path d="M12840 26890 c0 -13 28 -25 38 -16 3 4 0 11 -8 16 -20 13 -30 12 -30
0z"/>
<path d="M12233 26864 c15 -56 20 -80 18 -93 -4 -22 20 -71 35 -71 10 0 14 14
14 50 0 28 -5 50 -11 50 -5 0 -16 15 -24 34 -16 38 -41 61 -32 30z"/>
<path d="M9500 26828 c-11 -18 -25 -51 -31 -73 -6 -22 -18 -52 -26 -68 -8 -15
-11 -32 -8 -37 3 -6 1 -10 -5 -10 -7 0 -10 -6 -7 -14 3 -8 0 -17 -7 -19 -19
-8 -26 -45 -10 -51 9 -3 14 1 14 12 0 21 50 72 71 72 12 0 12 2 0 9 -7 5 -10
14 -7 20 4 6 12 8 18 5 7 -5 9 5 4 29 -4 21 -2 38 4 42 5 3 8 18 5 33 -2 14 2
36 10 49 9 13 11 24 5 28 -5 3 -19 -9 -30 -27z"/>
<path d="M9413 26832 c1 -14 5 -18 11 -12 7 7 6 14 -1 21 -9 9 -12 7 -10 -9z"/>
<path d="M12728 26834 c-7 -10 7 -31 35 -53 24 -19 21 -1 -6 33 -13 16 -26 25
-29 20z"/>
<path d="M12827 26834 c-8 -8 1 -24 14 -24 5 0 9 7 9 15 0 15 -12 20 -23 9z"/>
<path d="M9400 26748 c-36 -75 -36 -77 -1 -34 17 21 31 49 31 62 0 13 -1 24
-2 24 -2 0 -14 -24 -28 -52z"/>
<path d="M12796 26785 c4 -8 12 -15 20 -15 8 0 14 7 14 15 0 8 -9 15 -20 15
-13 0 -18 -5 -14 -15z"/>
<path d="M9579 26763 c-7 -43 -21 -83 -29 -83 -4 0 -13 -20 -19 -45 -8 -31
-17 -45 -28 -45 -15 0 -14 -2 3 -15 10 -8 14 -15 8 -15 -7 0 -10 -16 -9 -42 2
-28 -2 -49 -12 -60 -15 -16 -16 -16 -32 0 -9 10 -15 16 -14 14 4 -10 -41 -77
-68 -99 -28 -24 -28 -26 -12 -38 12 -9 24 -10 35 -4 10 5 19 5 23 0 3 -6 13
-10 23 -10 9 0 44 -3 77 -6 126 -12 128 -12 142 15 10 20 13 22 18 8 4 -10 4
-22 0 -28 -4 -7 18 -10 69 -9 64 1 76 4 76 18 0 10 -6 25 -13 35 -12 17 -14
17 -20 3 -4 -10 -13 -14 -21 -11 -11 4 -14 18 -11 55 2 27 0 51 -6 54 -5 4 -9
2 -9 -3 0 -5 -10 -13 -22 -19 -20 -9 -23 -8 -23 13 0 12 2 22 5 22 20 -1 30 4
30 17 0 18 -12 19 -27 4 -9 -9 -16 -7 -29 5 -16 17 -12 31 9 31 5 0 12 7 14
15 4 13 3 13 -6 0 -7 -9 -11 -10 -11 -3 0 6 5 15 10 18 6 3 10 12 10 20 0 18
-51 14 -68 -5 -12 -13 -13 -12 -9 7 6 26 -8 40 -19 21 -4 -6 -8 -32 -8 -57 -1
-30 -5 -46 -13 -45 -7 1 -22 2 -33 3 -20 1 -28 30 -13 45 13 13 13 50 1 59 -9
6 -8 7 4 4 13 -5 18 3 23 36 4 23 12 48 18 55 8 10 7 16 -4 23 -8 5 -9 9 -3 9
7 0 14 9 17 20 3 13 0 20 -9 20 -8 0 -15 -3 -15 -7z m56 -233 c3 -5 -1 -10
-10 -10 -9 0 -13 5 -10 10 3 6 8 10 10 10 2 0 7 -4 10 -10z m-105 -78 c0 -10
-6 -26 -13 -37 -13 -17 -14 -17 -20 4 -3 11 -1 21 4 21 5 0 9 7 9 15 0 8 5 15
10 15 6 0 10 -8 10 -18z m-62 -60 c-10 -2 -18 -7 -18 -12 0 -4 -6 -10 -14 -13
-9 -4 -13 2 -13 19 0 13 3 21 8 18 5 -3 9 0 9 6 0 7 7 7 23 -2 19 -10 20 -13
5 -16z m107 -2 c-3 -5 -11 -10 -16 -10 -6 0 -7 5 -4 10 3 6 11 10 16 10 6 0 7
-4 4 -10z"/>
<path d="M12855 26760 c3 -5 10 -10 16 -10 5 0 9 5 9 10 0 6 -7 10 -16 10 -8
0 -12 -4 -9 -10z"/>
<path d="M9573 26543 c-16 -6 -17 -36 -1 -31 6 2 12 12 14 21 1 9 2 17 1 16
-1 0 -8 -3 -14 -6z"/>
<path d="M9462 26528 c-14 -14 -16 -42 -3 -34 7 5 23 46 17 46 -1 0 -7 -5 -14
-12z"/>
<path d="M9367 26479 c-20 -23 -16 -35 8 -26 8 4 15 16 15 27 0 25 -1 25 -23
-1z"/>
<path d="M9346 26416 c3 -7 -2 -16 -10 -19 -22 -9 -20 -22 4 -24 11 -1 20 4
20 13 0 8 4 14 10 14 5 0 7 7 4 15 -4 8 -12 15 -20 15 -7 0 -11 -6 -8 -14z"/>
<path d="M9231 26391 c-16 -30 -14 -53 5 -49 24 4 36 44 19 58 -11 9 -16 7
-24 -9z"/>
<path d="M10650 26343 c0 -16 16 -31 40 -37 19 -6 21 -5 10 3 -8 6 -11 11 -6
11 5 0 3 7 -4 15 -13 16 -40 21 -40 8z"/>
<path d="M10340 26316 c0 -2 7 -7 16 -10 8 -3 12 -2 9 4 -6 10 -25 14 -25 6z"/>
<path d="M8640 25415 c7 -8 19 -15 27 -15 13 0 13 3 3 15 -7 8 -19 15 -27 15
-13 0 -13 -3 -3 -15z"/>
<path d="M25582 25088 c3 -7 15 -15 28 -16 21 -3 22 -2 11 12 -16 19 -44 21
-39 4z"/>
<path d="M25755 24940 c3 -5 11 -10 16 -10 6 0 7 5 4 10 -3 6 -11 10 -16 10
-6 0 -7 -4 -4 -10z"/>
<path d="M25285 24930 c-3 -5 -1 -10 4 -10 6 0 11 5 11 10 0 6 -2 10 -4 10 -3
0 -8 -4 -11 -10z"/>
<path d="M25639 24922 c-26 -28 -73 -62 -85 -62 -15 0 -39 -29 -31 -36 3 -4
14 -3 24 1 10 5 26 7 35 6 46 -6 108 58 94 96 -7 17 -17 15 -37 -5z"/>
<path d="M25057 24923 c-4 -3 -7 -11 -7 -17 0 -6 5 -5 12 2 6 6 9 14 7 17 -3
3 -9 2 -12 -2z"/>
<path d="M25730 24900 c0 -5 7 -7 15 -4 8 4 15 8 15 10 0 2 -7 4 -15 4 -8 0
-15 -4 -15 -10z"/>
<path d="M21563 24883 c-23 -4 -44 -49 -38 -80 2 -10 9 -46 16 -81 6 -34 16
-65 20 -68 4 -2 5 -12 2 -21 -4 -11 -2 -14 8 -11 8 3 13 12 11 19 -1 8 5 4 15
-8 10 -12 32 -25 48 -29 17 -4 39 -13 50 -20 25 -18 35 -18 35 1 0 8 5 15 10
15 6 0 10 -4 10 -10 0 -5 11 -10 24 -10 14 0 28 -5 32 -11 4 -6 19 -9 36 -5
27 5 29 4 23 -17 -6 -18 -5 -20 6 -9 16 15 49 16 49 1 0 -7 15 -10 40 -7 27 2
40 0 40 -9 0 -6 4 -15 10 -18 6 -4 7 1 3 11 -5 14 -3 16 13 10 10 -4 23 -8 29
-9 5 -1 17 -11 27 -22 16 -19 17 -19 18 -1 0 15 3 16 15 6 8 -6 19 -9 25 -5 6
4 17 2 24 -4 7 -6 26 -11 42 -11 16 -1 59 -1 96 -2 52 -1 68 -5 70 -17 3 -12
8 -10 27 9 24 25 24 25 18 3 -6 -25 2 -30 20 -12 15 15 56 18 65 5 3 -5 30
-11 60 -13 29 -2 78 -5 108 -7 30 -2 57 -5 60 -6 7 -3 45 -6 103 -8 29 -1 46
-6 42 -12 -3 -5 -1 -10 4 -10 6 0 11 4 11 9 0 5 9 7 21 4 18 -5 38 9 39 27 0
7 -101 46 -142 55 -9 2 -29 10 -45 18 -15 8 -48 20 -73 26 -91 23 -127 35
-205 71 -44 20 -101 43 -127 50 -27 7 -48 17 -48 22 0 6 -7 8 -15 4 -8 -3 -28
-1 -43 6 -30 12 -56 22 -87 34 -21 8 -110 29 -180 42 -23 5 -47 12 -54 17 -8
4 -32 10 -54 12 -21 2 -44 6 -50 10 -6 3 -23 7 -39 8 -15 2 -35 8 -43 15 -12
10 -18 10 -32 -1 -11 -10 -14 -10 -9 -1 4 7 2 12 -6 13 -27 3 -34 4 -56 17
-13 8 -30 11 -38 8 -9 -3 -12 -1 -9 4 3 6 3 9 -2 9 -4 -1 -18 -4 -30 -6z"/>
<path d="M25170 24840 c-13 -8 -13 -10 2 -10 9 0 20 5 23 10 8 13 -5 13 -25 0z"/>
<path d="M26020 24830 c0 -5 -11 -12 -25 -16 -25 -6 -32 -18 -16 -28 16 -10
71 18 71 36 0 10 -7 18 -15 18 -8 0 -15 -4 -15 -10z"/>
<path d="M26451 24669 c-42 -8 -70 -24 -60 -33 2 -2 59 -6 126 -8 118 -5 153
4 75 18 -20 4 -39 10 -42 14 -9 13 -55 17 -99 9z"/>
<path d="M21590 24605 c0 -2 10 -10 23 -16 20 -11 21 -11 8 4 -13 16 -31 23
-31 12z"/>
<path d="M26253 24476 c5 -14 37 -15 37 -1 0 6 -9 11 -20 11 -12 1 -19 -4 -17
-10z"/>
<path d="M22467 24459 c7 -7 15 -10 18 -7 3 3 -2 9 -12 12 -14 6 -15 5 -6 -5z"/>
<path d="M22954 24435 c-9 -22 1 -29 15 -11 8 10 9 16 1 21 -5 3 -13 -1 -16
-10z"/>
<path d="M26196 24443 c-9 -9 -7 -53 2 -53 12 0 32 22 32 36 0 13 -25 26 -34
17z"/>
<path d="M26972 24430 c7 -12 24 -23 38 -26 14 -2 39 -9 56 -14 58 -19 71 -7
34 30 -14 14 -28 18 -49 14 -16 -4 -31 -1 -35 5 -4 6 -18 11 -32 11 -22 0 -23
-2 -12 -20z"/>
<path d="M27559 24183 c-4 -23 -5 -30 -12 -50 -5 -15 -17 -23 -31 -23 -25 0
-38 -9 -31 -20 5 -8 58 8 83 23 14 10 16 63 2 72 -5 3 -11 3 -11 -2z"/>
<path d="M27405 24140 c3 -5 13 -10 21 -10 8 0 12 5 9 10 -3 6 -13 10 -21 10
-8 0 -12 -4 -9 -10z"/>
<path d="M26935 23815 c-30 -9 -36 -14 -23 -20 14 -6 78 18 78 30 0 7 -8 5
-55 -10z"/>
<path d="M27055 23820 c3 -5 10 -10 16 -10 5 0 9 5 9 10 0 6 -7 10 -16 10 -8
0 -12 -4 -9 -10z"/>
<path d="M28095 23784 c9 -9 18 -14 21 -11 9 9 -6 27 -22 27 -13 0 -13 -2 1
-16z"/>
<path d="M17194 23778 c-11 -17 -6 -114 6 -134 17 -27 83 -55 134 -57 24 -1
42 -5 40 -8 -6 -10 24 -19 41 -13 8 4 15 1 15 -6 0 -6 5 -8 10 -5 6 4 18 1 27
-7 13 -11 17 -11 21 0 3 10 10 9 30 -4 24 -16 72 -24 135 -24 15 0 27 -5 27
-11 0 -6 7 -9 15 -5 17 6 77 -13 87 -28 5 -8 8 -7 8 1 0 15 51 8 195 -28 75
-19 146 -29 156 -23 5 3 16 1 24 -6 10 -8 15 -8 20 1 5 7 10 8 14 1 6 -10 110
-25 161 -23 14 1 49 -4 78 -10 56 -11 96 -16 224 -24 59 -3 76 -2 72 8 -4 11
-70 37 -94 37 -6 0 -30 9 -52 20 -23 11 -52 20 -64 20 -13 0 -26 5 -29 10 -3
6 -21 10 -39 10 -18 0 -36 3 -40 7 -4 4 -19 9 -33 11 -15 2 -34 7 -44 13 -10
5 -30 9 -44 9 -15 0 -41 6 -58 14 -18 8 -106 31 -197 51 -91 19 -172 38 -180
42 -8 3 -24 7 -35 8 -11 2 -36 8 -55 13 -19 6 -71 20 -115 31 -44 12 -97 31
-117 42 -21 11 -38 17 -38 13 0 -3 -6 -1 -14 6 -8 6 -51 13 -95 16 -45 2 -93
9 -108 15 -58 23 -83 28 -89 17z"/>
<path d="M28245 23770 c-3 -5 -1 -10 4 -10 6 0 11 5 11 10 0 6 -2 10 -4 10 -3
0 -8 -4 -11 -10z"/>
<path d="M27515 23750 c4 -6 11 -8 16 -5 14 9 11 15 -7 15 -8 0 -12 -5 -9 -10z"/>
<path d="M27287 23732 c-9 -2 -14 -8 -11 -14 4 -6 -1 -8 -15 -3 -15 4 -21 2
-21 -8 0 -17 43 -31 70 -22 12 4 16 12 13 26 -6 23 -12 27 -36 21z"/>
<path d="M27375 23730 c3 -5 8 -10 11 -10 2 0 4 5 4 10 0 6 -5 10 -11 10 -5 0
-7 -4 -4 -10z"/>
<path d="M27185 23700 c3 -5 16 -10 28 -10 18 0 19 2 7 10 -20 13 -43 13 -35
0z"/>
<path d="M28180 23674 l-25 -15 29 3 c16 2 31 9 34 16 5 15 -6 14 -38 -4z"/>
<path d="M28298 23673 c7 -3 16 -2 19 1 4 3 -2 6 -13 5 -11 0 -14 -3 -6 -6z"/>
<path d="M27973 23643 c-30 -6 -51 -32 -34 -42 21 -13 111 9 111 28 0 16 -31
22 -77 14z"/>
<path d="M28075 23640 c-3 -5 1 -10 9 -10 9 0 16 5 16 10 0 6 -4 10 -9 10 -6
0 -13 -4 -16 -10z"/>
<path d="M28555 23620 c4 -6 11 -8 16 -5 14 9 11 15 -7 15 -8 0 -12 -5 -9 -10z"/>
<path d="M28610 23615 c-7 -8 -9 -15 -6 -15 4 0 14 7 22 15 9 8 11 15 6 15 -5
0 -15 -7 -22 -15z"/>
<path d="M21455 23600 c-3 -5 -2 -10 4 -10 5 0 13 5 16 10 3 6 2 10 -4 10 -5
0 -13 -4 -16 -10z"/>
<path d="M27850 23601 c0 -12 39 -21 45 -11 3 4 -2 11 -11 14 -22 8 -34 7 -34
-3z"/>
<path d="M27818 23583 c7 -3 16 -2 19 1 4 3 -2 6 -13 5 -11 0 -14 -3 -6 -6z"/>
<path d="M28819 23562 c16 -30 38 -44 63 -40 21 3 20 5 -17 31 -46 32 -60 34
-46 9z"/>
<path d="M28920 23560 c6 -11 15 -20 21 -20 6 0 6 7 -1 20 -6 11 -15 20 -21
20 -6 0 -6 -7 1 -20z"/>
<path d="M27738 23563 c7 -3 16 -2 19 1 4 3 -2 6 -13 5 -11 0 -14 -3 -6 -6z"/>
<path d="M28645 23550 c-3 -5 -1 -10 4 -10 6 0 11 5 11 10 0 6 -2 10 -4 10 -3
0 -8 -4 -11 -10z"/>
<path d="M28780 23553 c0 -17 41 -63 56 -63 19 0 18 7 -3 28 -31 30 -53 45
-53 35z"/>
<path d="M21401 23537 c-6 -8 -8 -17 -4 -20 3 -4 -1 -7 -10 -7 -9 0 -17 -6
-17 -14 0 -24 17 -27 23 -5 3 12 10 18 16 15 5 -4 12 -2 15 3 4 5 1 13 -5 17
-8 4 -7 9 2 15 8 5 9 9 3 9 -6 0 -17 -6 -23 -13z"/>
<path d="M28705 23520 c-18 -8 -17 -9 7 -9 15 -1 30 4 33 9 7 12 -12 12 -40 0z"/>
<path d="M28611 23506 c-24 -8 -31 -15 -22 -20 14 -9 71 12 71 25 0 11 -7 11
-49 -5z"/>
<path d="M28755 23510 c-3 -5 1 -10 10 -10 9 0 13 5 10 10 -3 6 -8 10 -10 10
-2 0 -7 -4 -10 -10z"/>
<path d="M21350 23470 c0 -5 5 -10 10 -10 6 0 10 5 10 10 0 6 -4 10 -10 10 -5
0 -10 -4 -10 -10z"/>
<path d="M29115 23430 c3 -5 13 -10 21 -10 8 0 14 5 14 10 0 6 -9 10 -21 10
-11 0 -17 -4 -14 -10z"/>
<path d="M29281 23423 c8 -10 18 -21 23 -25 14 -10 8 -80 -9 -97 -13 -13 -18
-13 -50 2 -19 9 -35 12 -35 7 0 -6 7 -13 15 -16 22 -9 18 -34 -4 -34 -22 0
-36 -16 -22 -24 13 -9 113 48 134 76 16 21 16 28 6 54 -15 34 -48 74 -62 74
-5 0 -3 -8 4 -17z"/>
<path d="M29013 23423 c-7 -3 -13 -12 -13 -20 0 -10 6 -13 16 -9 9 3 20 6 25
6 13 0 11 17 -3 22 -7 3 -19 3 -25 1z"/>
<path d="M29155 23390 c-3 -5 -1 -10 4 -10 6 0 11 5 11 10 0 6 -2 10 -4 10 -3
0 -8 -4 -11 -10z"/>
<path d="M27307 22400 c-12 -11 -15 -20 -8 -24 14 -9 53 13 48 27 -6 18 -21
17 -40 -3z"/>
<path d="M26322 22093 c-6 -2 -10 -9 -7 -13 7 -11 35 -2 35 11 0 10 -8 10 -28
2z"/>
<path d="M26269 22043 c-13 -15 -12 -15 11 -3 34 17 36 20 18 20 -9 0 -22 -7
-29 -17z"/>
<path d="M29140 21912 c-25 -20 -59 -48 -75 -61 -23 -17 -24 -20 -5 -9 103 59
140 84 140 95 0 20 -11 15 -60 -25z"/>
<path d="M25376 21554 c-9 -23 -7 -36 3 -30 12 8 21 46 11 46 -4 0 -11 -7 -14
-16z"/>
<path d="M29310 21504 c-17 -17 -21 -27 -13 -32 6 -4 13 -28 16 -52 l4 -45 1
52 c1 28 6 63 12 77 12 32 9 32 -20 0z"/>
<path d="M29266 21453 c-6 -14 -5 -15 5 -6 7 7 10 15 7 18 -3 3 -9 -2 -12 -12z"/>
<path d="M25394 21318 c-4 -13 -20 -40 -37 -61 -42 -54 -77 -107 -71 -107 11
0 234 114 230 118 -2 2 -10 5 -18 6 -33 7 -68 31 -68 48 0 26 -27 22 -36 -4z"/>
<path d="M25323 21284 c-7 -7 -13 -20 -13 -29 0 -8 -7 -15 -15 -15 -8 0 -15
-7 -15 -15 0 -26 47 15 53 45 6 30 5 32 -10 14z"/>
<path d="M28186 21165 c-30 -28 -34 -40 -7 -24 16 11 46 49 38 49 -2 0 -16
-11 -31 -25z"/>
<path d="M28410 21180 c0 -5 5 -10 11 -10 5 0 7 5 4 10 -3 6 -8 10 -11 10 -2
0 -4 -4 -4 -10z"/>
<path d="M27996 20995 c-3 -10 1 -15 13 -15 10 0 21 7 25 15 3 10 -1 15 -13
15 -10 0 -21 -7 -25 -15z"/>
</g>
</svg>
