<?xml version="1.0" standalone="no"?>
<!DOCTYPE svg PUBLIC "-//W3C//DTD SVG 20010904//EN"
 "http://www.w3.org/TR/2001/REC-SVG-20010904/DTD/svg10.dtd">
<svg version="1.0" xmlns="http://www.w3.org/2000/svg"
 width="1920.000000pt" height="1079.000000pt" viewBox="0 0 1920.000000 1079.000000"
 preserveAspectRatio="xMidYMid meet">

<g transform="translate(0.000000,1079.000000) scale(0.100000,-0.100000)"
fill="#000000" stroke="none">
<path d="M0 5395 l0 -5395 9600 0 9600 0 0 5395 0 5395 -5184 0 -5184 0 -6
-767 c-4 -423 -8 -882 -9 -1022 l-2 -254 31 -18 c31 -17 43 -16 430 28 444 50
446 50 526 -10 77 -59 83 -81 128 -472 22 -192 114 -993 206 -1780 91 -786
168 -1480 171 -1541 5 -98 3 -115 -15 -151 -26 -51 -94 -110 -142 -123 -49
-14 -1774 -210 -1845 -210 -73 0 -132 27 -178 81 -44 51 -53 83 -74 270 -9 87
-18 157 -20 156 -1 -2 -16 -198 -33 -437 -25 -345 -35 -443 -49 -475 -33 -75
-116 -138 -198 -150 -21 -4 -425 21 -898 54 -1141 80 -1122 79 -1170 100 -48
21 -108 79 -125 121 -9 23 -19 30 -39 30 -14 0 -351 -31 -747 -69 -576 -55
-731 -67 -768 -59 -68 14 -134 64 -169 125 l-29 53 -103 1072 c-57 590 -104
1075 -105 1078 -2 7 -4 1 -264 -930 -124 -443 -233 -822 -243 -843 -33 -75
-129 -137 -210 -137 -16 0 -394 101 -839 225 -1013 282 -949 263 -994 296 -49
36 -90 117 -90 180 0 32 124 488 375 1386 207 736 414 1475 461 1643 158 562
160 570 192 609 16 20 49 47 73 61 78 44 117 38 548 -83 368 -104 428 -116
445 -88 6 10 40 413 81 961 54 721 89 1080 106 1080 11 0 12 22 -11 -203 -11
-105 -38 -448 -60 -762 -47 -658 -68 -940 -75 -975 -4 -18 -3 -21 4 -10 5 8
27 124 50 257 23 134 48 274 56 311 8 38 23 141 34 228 27 211 141 1145 141
1156 0 4 -760 8 -1690 8 l-1690 0 0 -5395z m13130 3456 c13 -294 19 -331 53
-331 12 0 44 -11 70 -25 l48 -26 101 56 c155 85 156 83 11 -89 -24 -27 -43
-57 -43 -67 0 -26 145 -47 380 -54 113 -3 219 -8 235 -10 17 -2 63 -7 103 -11
39 -3 72 -11 72 -15 0 -5 7 -9 17 -9 9 0 14 -2 12 -4 -7 -7 -280 -26 -524 -36
-132 -6 -247 -13 -256 -16 -9 -2 -24 -26 -32 -52 l-16 -46 56 -71 c31 -38 70
-85 86 -102 27 -29 28 -32 9 -28 -19 3 -78 34 -178 91 l-40 24 -39 -20 c-22
-11 -45 -20 -53 -20 -7 0 -10 -5 -6 -11 5 -8 1 -8 -14 0 -17 9 -20 7 -26 -20
-5 -26 1 -40 41 -92 71 -92 284 -302 400 -394 220 -175 461 -316 716 -418
l131 -53 -81 -25 c-154 -49 -237 -62 -403 -61 -131 0 -172 5 -268 27 -98 23
-271 85 -295 107 -5 4 29 -3 75 -17 188 -54 432 -72 603 -44 118 20 118 19 17
66 -326 153 -637 408 -848 695 -22 30 -53 72 -68 93 -15 21 -30 37 -32 34 -4
-4 -9 -84 -20 -338 -11 -264 -29 -208 -45 141 -5 118 -13 235 -19 260 -5 25
-9 48 -10 51 0 4 -12 9 -27 12 -16 3 -38 15 -50 26 l-21 20 -118 -59 c-65 -33
-120 -58 -123 -55 -2 3 11 22 30 43 91 97 160 192 140 192 -15 0 -23 33 -9 42
9 5 7 8 -7 8 -11 0 -117 4 -235 10 -239 11 -412 29 -404 42 3 4 10 6 15 3 5
-4 9 -2 9 3 0 10 232 32 346 32 81 0 228 22 272 40 12 5 22 15 22 21 0 7 -32
54 -70 106 -39 52 -74 101 -77 110 -6 15 67 -21 176 -88 l45 -27 40 21 c23 12
43 23 45 24 12 7 22 117 31 337 6 137 13 253 17 259 15 24 24 -48 33 -262z
m-90 -1343 c-54 -179 -200 -390 -342 -495 -26 -19 -48 -38 -48 -43 0 -4 19
-10 43 -14 23 -4 91 -18 150 -32 103 -25 109 -25 127 -9 28 26 67 12 87 -30
19 -39 11 -80 -19 -98 -24 -16 -67 7 -81 42 l-10 28 -196 6 c-194 5 -451 26
-451 37 0 3 32 23 72 44 258 140 486 348 642 583 23 34 43 60 45 58 2 -2 -7
-37 -19 -77z m119 -784 c30 -38 28 -89 -4 -110 -14 -9 -32 -13 -44 -9 -29 9
-61 53 -61 83 0 60 71 84 109 36z m-282 -181 c-54 -81 -177 -205 -267 -268
-130 -92 -273 -161 -485 -235 l-110 -38 130 -62 c157 -74 378 -191 372 -196
-10 -10 -684 225 -751 263 -10 5 43 28 172 72 228 77 441 160 543 212 119 59
281 173 361 252 40 39 75 71 77 70 2 -1 -17 -33 -42 -70z m411 21 c41 -47 19
-114 -39 -114 -41 0 -58 9 -74 41 -21 39 -19 56 11 85 30 31 67 27 102 -12z
m592 -236 c208 -152 431 -253 675 -308 79 -18 281 -35 489 -43 l69 -2 -159
-67 c-349 -146 -595 -198 -934 -198 -156 0 -371 18 -385 32 -2 2 60 4 138 5
275 3 572 49 830 131 58 18 66 32 18 32 -35 0 -199 44 -286 77 -259 97 -509
280 -666 488 -93 124 -89 127 22 19 63 -61 148 -136 189 -166z m-459 103 c16
-16 29 -39 29 -51 0 -32 -44 -70 -80 -70 -70 0 -106 88 -54 129 37 29 70 26
105 -8z m154 -116 c32 -31 31 -46 -1 -84 -21 -26 -33 -31 -69 -31 -35 0 -48 5
-64 26 -27 35 -26 59 4 89 18 19 35 25 65 25 30 0 47 -6 65 -25z m150 -86 c21
-18 26 -28 21 -50 l-5 -28 34 15 c47 19 78 18 109 -7 19 -15 25 -27 20 -41 -6
-19 -5 -19 25 -4 36 19 102 21 119 4 53 -53 -66 -156 -153 -134 -18 5 -27 15
-32 37 -4 23 -10 28 -22 23 -37 -16 -82 -16 -107 1 -22 14 -25 22 -21 50 l5
33 -29 -15 c-95 -47 -175 63 -85 118 41 25 87 24 121 -2z m-1051 -21 c59 -59
55 -151 -7 -172 -82 -29 -163 106 -106 178 29 37 72 35 113 -6z m130 -252 c48
-20 76 -61 76 -110 0 -57 -27 -86 -80 -86 -96 0 -155 133 -82 190 29 24 42 25
86 6z m226 -271 c57 -54 50 -131 -14 -162 -70 -33 -154 18 -163 99 -4 36 -1
47 22 72 24 26 31 28 76 24 37 -4 58 -12 79 -33z m175 -195 c59 -28 81 -77 59
-128 -23 -56 -104 -77 -170 -46 -62 29 -81 99 -43 148 39 49 89 58 154 26z
m-635 -183 c-148 -146 -250 -228 -423 -344 -228 -152 -585 -319 -809 -378 -38
-10 -68 -21 -68 -25 0 -14 224 -111 313 -136 117 -32 277 -54 392 -54 117 0
135 5 135 38 0 35 37 72 71 72 32 0 79 -19 79 -32 0 -4 9 -17 20 -28 11 -11
16 -20 10 -20 -5 0 -10 -8 -10 -18 0 -52 -82 -81 -133 -47 -20 12 -34 12 -117
-1 -116 -19 -326 -14 -445 11 -95 19 -240 67 -310 102 -66 33 -245 144 -245
153 0 3 44 17 98 29 297 71 659 216 947 379 123 69 409 262 514 346 52 42 97
76 100 76 3 0 -50 -56 -119 -123z m834 12 c90 -25 115 -102 51 -157 -86 -76
-225 -41 -225 56 0 49 23 78 75 97 49 17 51 17 99 4z m254 -155 c71 -28 80
-90 21 -144 -56 -50 -142 -64 -197 -30 -79 49 -56 139 45 176 50 18 84 17 131
-2z m487 -164 c192 -145 420 -249 660 -300 68 -14 153 -23 265 -27 203 -6 304
8 520 72 85 25 164 49 175 52 32 9 -307 -248 -419 -318 -129 -81 -314 -176
-436 -225 -107 -42 -307 -107 -294 -95 5 5 52 28 104 51 87 40 251 126 318
167 89 54 302 198 302 203 0 3 -26 3 -57 -1 -164 -21 -387 0 -561 50 -174 51
-288 104 -438 207 l-97 65 -27 -33 c-69 -84 -227 -124 -271 -69 -19 23 -18 61
4 89 6 8 6 12 -1 12 -6 0 -14 -4 -17 -10 -3 -5 -30 -17 -60 -25 -43 -13 -62
-14 -94 -5 -140 38 -44 202 120 204 73 1 109 -21 109 -67 0 -18 -5 -38 -12
-45 -18 -18 -3 -15 39 8 21 11 52 23 70 26 18 3 33 9 33 12 0 2 -19 28 -43 56
-24 28 -56 69 -72 91 -24 32 -15 26 45 -30 41 -38 102 -90 135 -115z m-425
-170 c43 -43 14 -110 -46 -110 -43 0 -69 35 -59 80 11 51 68 67 105 30z m-216
-121 c49 -39 24 -119 -37 -119 -40 0 -53 9 -65 40 -16 43 18 99 59 100 9 0 28
-9 43 -21z m-228 -102 c35 -31 38 -82 5 -109 -32 -25 -67 -23 -96 7 -40 39
-28 93 26 114 34 14 35 14 65 -12z m-240 -80 c20 -18 27 -32 26 -58 -2 -87
-127 -93 -148 -7 -5 22 0 33 24 58 37 36 62 38 98 7z m-267 -42 c50 -25 57
-91 15 -124 -54 -43 -124 -10 -124 58 0 37 17 62 50 74 24 9 29 8 59 -8z
m-244 -40 c40 -39 32 -96 -17 -121 -24 -12 -36 -13 -64 -4 -39 13 -54 35 -54
79 0 67 85 97 135 46z m1603 -415 c18 -11 40 -36 47 -54 12 -29 28 -39 120
-80 292 -128 567 -186 878 -186 238 0 436 33 690 114 42 13 77 23 77 20 0 -13
-315 -378 -405 -468 -364 -366 -718 -536 -1112 -536 -141 0 -207 10 -331 51
-76 25 -76 37 0 14 87 -26 229 -36 344 -25 387 36 743 244 1109 647 63 70 115
130 115 133 0 4 -32 1 -72 -7 -180 -34 -454 -35 -668 -3 -208 30 -513 141
-672 243 -59 38 -68 38 -68 1 0 -32 -62 -92 -103 -99 -46 -9 -102 16 -127 57
-39 61 -11 144 61 180 44 23 76 23 117 -2z m-1768 -121 c-27 -18 -163 -86
-280 -139 -426 -193 -940 -344 -1380 -405 -69 -9 -131 -19 -139 -21 -35 -11
251 -267 434 -389 392 -261 891 -421 1328 -426 90 -1 103 -3 67 -10 -77 -13
-343 -10 -467 6 -416 55 -803 211 -1131 458 -117 88 -264 227 -365 346 l-78
90 33 5 c18 3 65 8 103 11 197 17 573 81 820 139 298 71 685 193 930 294 121
50 153 60 125 41z m1338 -129 c63 -38 77 -125 31 -184 -75 -95 -224 -60 -236
55 -11 111 110 187 205 129z m-463 -200 c93 -57 78 -193 -25 -234 -50 -20 -71
-20 -115 -2 -65 27 -95 119 -60 185 34 67 134 92 200 51z m-463 -178 c32 -35
38 -48 38 -84 0 -134 -170 -194 -261 -91 -23 27 -29 43 -29 81 0 93 61 146
159 139 48 -4 58 -8 93 -45z m-588 -53 c67 -17 108 -65 114 -132 4 -47 1 -57
-23 -85 -35 -42 -74 -62 -120 -62 -104 0 -185 95 -156 183 14 41 58 85 97 97
40 11 39 11 88 -1z m-1027 -45 c146 -117 52 -312 -127 -264 -87 24 -152 123
-130 199 20 72 71 103 157 99 51 -3 69 -9 100 -34z m523 -6 c58 -30 90 -77 90
-135 0 -58 -25 -99 -75 -123 -53 -26 -98 -25 -152 1 -53 26 -84 68 -90 123
-14 118 113 191 227 134z m5704 -318 c-224 -286 -586 -573 -1010 -804 -724
-393 -1560 -621 -2569 -698 -260 -20 -1116 -17 -1420 5 -453 33 -920 86 -1360
153 -453 70 -518 81 -1400 240 -618 111 -654 117 -960 168 -741 124 -1357 200
-1855 231 -52 3 -124 8 -160 10 -185 12 -607 15 -850 6 -714 -28 -1272 -119
-1976 -321 -177 -51 -515 -160 -632 -204 -37 -13 -130 -48 -207 -76 -342 -126
-883 -352 -1410 -590 -329 -149 -335 -151 -335 -146 0 3 46 27 103 54 56 28
221 108 367 180 1997 978 3281 1295 4940 1222 836 -37 1523 -129 3100 -416
1073 -195 1542 -270 2085 -333 1029 -119 1935 -120 2710 0 400 61 701 132
1040 244 282 93 479 174 735 301 446 223 770 457 1015 733 48 56 90 101 92
101 3 0 -17 -27 -43 -60z"/>
<path d="M3406 10753 c-4 -21 -40 -318 -81 -660 -41 -342 -83 -666 -94 -720
-11 -54 -36 -192 -56 -308 -19 -115 -41 -236 -49 -267 -12 -53 -12 -58 5 -63
10 -3 32 -22 49 -41 29 -34 45 -40 225 -90 187 -52 197 -54 262 -45 38 5 247
26 466 47 l398 37 36 33 c31 29 35 37 29 66 -3 18 -13 172 -21 341 -8 170 -17
318 -20 330 -5 23 -23 202 -80 807 -40 431 -44 470 -52 528 l-5 42 -503 0
-503 0 -6 -37z"/>
<path d="M4454 10748 c3 -24 24 -230 46 -458 23 -228 52 -523 66 -655 14 -132
29 -319 35 -415 28 -510 29 -523 45 -507 3 3 10 401 14 884 5 483 12 949 15
1036 l7 157 -117 0 -117 0 6 -42z"/>
<path d="M4707 10746 c-4 -24 -9 -493 -13 -1042 l-7 -1000 42 -19 43 -19 396
37 c219 21 420 37 448 37 132 -1 244 -119 244 -257 0 -48 8 -53 36 -22 27 30
87 58 136 65 24 3 241 -8 482 -26 l439 -31 43 22 42 23 6 86 c11 146 26 1072
26 1591 0 494 4 589 23 589 9 0 3 -1802 -7 -2050 -5 -102 -5 -103 5 -30 5 41
32 316 59 610 77 815 130 1341 146 1443 l6 37 -1295 0 -1294 0 -6 -44z"/>
<path d="M7292 10468 c-18 -178 -54 -568 -82 -868 -28 -300 -62 -666 -76 -813
-14 -148 -24 -269 -22 -270 1 -1 21 -16 43 -33 40 -31 43 -31 210 -43 94 -6
198 -14 231 -17 60 -6 61 -5 68 21 9 36 78 108 123 129 26 11 172 32 454 65
398 46 417 49 450 74 l35 26 -13 109 c-23 210 -33 582 -33 1259 l0 683 -678 0
-678 0 -32 -322z"/>
<path d="M8701 10758 c5 -19 9 -316 9 -693 0 -886 23 -1355 64 -1314 3 2 9
353 15 779 6 426 13 884 17 1018 l6 242 -60 0 -61 0 10 -32z"/>
<path d="M2139 8759 c-14 -5 -31 -20 -37 -32 -6 -12 -75 -249 -152 -527 -159
-568 -590 -2102 -741 -2637 -54 -194 -99 -359 -99 -367 0 -8 10 -26 23 -40 23
-27 2 -21 1425 -417 178 -50 331 -87 341 -84 10 3 25 13 34 23 9 9 74 226 146
482 71 256 209 747 305 1091 l176 626 -20 199 c-11 110 -42 433 -69 719 -47
490 -49 533 -30 603 3 10 -44 27 -166 61 -93 27 -180 51 -192 55 -19 6 -22 2
-33 -49 -10 -50 -10 -57 9 -81 50 -64 8 -160 -75 -171 -37 -5 -46 -2 -80 30
-33 30 -39 41 -38 74 2 50 27 89 67 104 26 9 35 21 49 62 10 28 16 52 15 53
-2 1 -780 219 -817 228 -8 3 -27 0 -41 -5z m560 -1404 c232 -49 421 -175 491
-327 39 -83 50 -199 30 -300 -11 -58 -91 -292 -103 -305 -5 -4 -391 132 -405
143 -2 1 13 51 33 111 55 161 44 233 -42 269 -46 20 -112 17 -149 -5 -36 -22
-74 -93 -74 -138 0 -76 61 -221 164 -391 93 -153 183 -333 207 -412 47 -154
25 -357 -58 -529 -46 -97 -151 -204 -243 -248 -68 -33 -192 -63 -258 -63 -54
0 -145 17 -222 42 -219 70 -371 205 -430 379 -19 55 -21 80 -17 174 4 102 8
120 55 249 28 76 53 141 55 143 3 3 414 -144 424 -151 1 -1 -16 -51 -39 -111
-64 -175 -56 -250 32 -295 78 -40 167 -18 210 52 30 50 43 128 31 190 -16 87
-47 158 -135 304 -180 302 -231 419 -242 559 -15 178 110 463 254 577 111 89
263 118 431 83z"/>
<path d="M8760 8710 c0 -5 5 -10 10 -10 6 0 10 5 10 10 0 6 -4 10 -10 10 -5 0
-10 -4 -10 -10z"/>
<path d="M3100 8701 c0 -10 24 -21 43 -21 7 0 3 7 -7 15 -22 17 -36 19 -36 6z"/>
<path d="M4635 8671 c-3 -5 -1 -12 5 -16 5 -3 10 1 10 9 0 18 -6 21 -15 7z"/>
<path d="M9203 8572 l-393 -46 0 -58 c0 -47 3 -58 20 -63 32 -10 70 -63 70
-98 0 -78 -81 -136 -150 -107 -79 33 -95 134 -30 190 14 12 16 25 11 70 l-6
56 -320 -37 c-176 -20 -372 -43 -435 -49 -121 -14 -129 -28 -14 -29 98 -1 159
-25 218 -84 58 -58 76 -104 76 -191 0 -31 -11 -212 -25 -404 -82 -1143 -125
-1775 -126 -1832 0 -36 25 -281 56 -545 30 -264 60 -525 66 -580 11 -105 25
-139 59 -150 23 -7 1793 191 1827 205 12 5 29 20 37 33 17 25 36 -154 -194
1837 -49 426 -101 872 -115 990 -13 118 -41 359 -60 535 -42 374 -40 360 -65
385 -27 27 -45 26 -507 -28z m190 -1194 c19 -148 39 -369 34 -374 -4 -4 -129
-20 -279 -36 -150 -17 -274 -31 -276 -33 -1 -1 8 -98 20 -214 l22 -212 31 5
c73 12 456 49 461 44 12 -13 50 -410 40 -414 -6 -2 -116 -15 -245 -29 -129
-13 -235 -26 -237 -27 -2 -3 47 -471 50 -474 0 -1 133 13 294 30 160 18 292
32 292 31 6 -5 46 -412 42 -416 -4 -3 -227 -30 -497 -59 -269 -29 -504 -54
-521 -57 l-31 -5 -11 103 c-7 57 -50 455 -97 884 -47 429 -95 869 -107 977
-12 109 -20 200 -17 202 3 4 949 111 1005 115 18 1 22 -6 27 -41z"/>
<path d="M5300 8525 c-124 -12 -310 -30 -415 -40 -104 -9 -191 -18 -192 -19
-1 0 -3 -27 -4 -58 -3 -55 -1 -58 31 -80 104 -70 58 -218 -67 -218 -63 0 -104
39 -110 106 -5 46 -2 54 26 86 27 32 31 43 31 97 l0 61 -37 -5 c-21 -3 -231
-23 -468 -45 -236 -22 -440 -45 -452 -52 -12 -6 -27 -22 -32 -37 -9 -20 16
-317 113 -1336 69 -720 154 -1619 190 -1996 36 -377 68 -694 72 -703 4 -9 20
-24 36 -32 27 -14 104 -8 1001 76 535 51 983 97 997 104 49 22 51 40 25 306
-13 135 -56 578 -95 985 -39 407 -104 1091 -145 1520 -96 997 -104 1087 -111
1165 -7 78 -20 117 -45 130 -24 14 -88 11 -349 -15z m-141 -1517 c5 -18 62
-224 125 -458 222 -820 407 -1506 426 -1572 16 -59 16 -68 4 -68 -9 0 -112 -9
-231 -21 -143 -14 -218 -18 -222 -11 -3 6 -24 92 -45 192 l-40 181 -35 -5
c-20 -3 -90 -11 -156 -17 -66 -6 -123 -13 -127 -15 -5 -3 -8 -90 -8 -195 0
-104 -3 -189 -7 -190 -5 0 -114 -10 -243 -23 -129 -12 -236 -22 -238 -20 -2 1
6 123 18 270 110 1412 151 1928 153 1931 5 4 508 51 559 52 55 1 57 0 67 -31z"/>
<path d="M4868 6145 c-3 -291 -5 -531 -4 -532 5 -6 226 20 226 26 -1 3 -49
238 -109 521 l-108 515 -5 -530z"/>
<path d="M8767 8473 c7 -71 11 -75 12 -10 1 31 -3 57 -8 57 -5 0 -6 -21 -4
-47z"/>
<path d="M3011 8473 c-1 -6 -4 -20 -7 -30 -5 -17 -5 -17 6 0 6 10 9 23 6 30
-3 9 -5 9 -5 0z"/>
<path d="M7100 8470 c0 -6 7 -10 15 -10 8 0 15 2 15 4 0 2 -7 6 -15 10 -8 3
-15 1 -15 -4z"/>
<path d="M4643 8405 c0 -33 2 -45 4 -27 2 18 2 45 0 60 -2 15 -4 0 -4 -33z"/>
<path d="M6028 8329 c-10 -5 -23 -20 -29 -31 -7 -12 -22 -160 -34 -328 l-22
-305 149 -1570 c83 -880 146 -1587 143 -1609 -13 -85 -77 -167 -158 -201 -18
-7 -104 -20 -191 -29 -88 -9 -161 -18 -164 -20 -28 -29 285 -56 1818 -158 96
-6 188 -8 203 -4 18 4 33 18 42 39 10 23 31 280 75 907 33 481 74 1066 90
1300 17 234 39 558 51 720 11 162 33 475 49 694 32 451 32 447 -38 465 -20 5
-217 21 -437 36 -220 14 -421 28 -446 31 l-47 6 -7 -61 c-7 -59 -6 -61 24 -86
53 -45 54 -124 1 -176 -23 -24 -37 -29 -75 -29 -73 0 -125 49 -125 117 0 37
33 90 65 105 17 8 25 19 25 37 0 14 3 43 6 64 l7 37 -45 0 c-25 0 -235 14
-468 30 -482 34 -440 32 -462 19z m842 -1488 l175 -16 3 -30 c1 -17 -36 -408
-82 -870 -46 -462 -81 -843 -78 -846 4 -3 116 -17 250 -29 231 -22 242 -24
242 -44 0 -12 -7 -105 -17 -208 l-17 -188 -30 0 c-32 0 -939 89 -942 93 -1 1
4 61 12 132 13 130 135 1367 175 1775 27 288 19 261 82 254 28 -3 131 -13 227
-23z"/>
<path d="M7036 8258 c-10 -31 -15 -102 -7 -88 9 16 22 100 15 100 -3 0 -6 -6
-8 -12z"/>
</g>
</svg>
