<?xml version="1.0" standalone="no"?>
<!DOCTYPE svg PUBLIC "-//W3C//DTD SVG 20010904//EN"
 "http://www.w3.org/TR/2001/REC-SVG-20010904/DTD/svg10.dtd">
<svg version="1.0" xmlns="http://www.w3.org/2000/svg"
 width="1200.000000pt" height="563.000000pt" viewBox="0 0 1200.000000 563.000000"
 preserveAspectRatio="xMidYMid meet">

<g transform="translate(0.000000,563.000000) scale(0.100000,-0.100000)"
fill="#000000" stroke="none">
<path d="M0 5087 l0 -544 273 -73 c149 -40 313 -84 362 -97 50 -13 97 -26 105
-28 581 -156 691 -187 686 -192 -4 -4 -243 54 -256 62 -6 3 -164 47 -315 85
-38 10 -117 32 -175 48 -58 17 -193 53 -300 82 -107 28 -233 62 -280 76 -102
29 -100 29 -100 4 0 -13 9 -22 28 -26 15 -3 38 -10 52 -14 29 -11 552 -167
785 -235 88 -26 174 -51 190 -56 67 -21 693 -199 730 -207 22 -6 78 -21 125
-35 47 -13 130 -37 185 -52 55 -15 130 -36 167 -46 37 -11 100 -28 140 -39 40
-10 159 -42 263 -70 105 -29 222 -61 260 -71 112 -29 229 -60 240 -63 6 -2 29
-7 52 -11 45 -8 69 -27 58 -45 -8 -13 -55 -13 -55 0 0 5 -6 7 -13 5 -6 -3
-102 13 -212 35 -110 23 -211 43 -225 45 -14 2 -36 7 -50 10 -14 3 -50 9 -80
15 -84 15 -100 19 -118 24 -9 3 -35 8 -57 12 -22 3 -116 21 -210 39 -93 19
-291 57 -440 84 -148 28 -292 55 -320 61 -27 6 -88 17 -135 24 -47 8 -146 26
-220 39 -236 44 -723 128 -965 167 -72 12 -140 23 -152 26 l-23 4 0 -214 c0
-162 3 -216 13 -219 10 -4 10 -6 0 -6 -10 -1 -13 -91 -13 -415 0 -386 1 -415
18 -419 16 -4 16 -5 0 -6 -39 -2 -15 -20 35 -25 106 -11 700 -17 1764 -17
1029 1 1093 0 1093 -17 -1 -43 4 -42 -275 -62 -77 -6 -167 -12 -200 -15 -33
-3 -150 -12 -260 -20 -216 -17 -257 -20 -765 -66 -364 -32 -774 -71 -995 -94
-77 -8 -187 -19 -245 -25 -58 -6 -120 -13 -138 -16 l-32 -5 0 -124 0 -124 48
-4 47 -3 -47 -2 -48 -2 0 -469 0 -468 108 24 c105 24 493 115 802 188 423 101
1318 328 1715 435 243 65 213 61 235 30 24 -34 24 -36 3 -43 -22 -7 -232 -79
-523 -180 -118 -41 -231 -81 -250 -87 -260 -90 -745 -263 -1180 -422 -196 -71
-611 -227 -842 -315 l-67 -26 -1 -450 0 -449 37 4 c21 3 47 8 58 12 16 6 17 6
5 -3 -11 -8 131 -11 508 -11 l523 0 307 171 c169 95 444 250 612 347 168 96
319 183 335 192 17 9 98 57 180 105 141 83 479 278 573 331 23 13 49 24 57 24
7 0 15 4 17 9 1 5 12 3 23 -6 16 -13 17 -15 3 -10 -10 4 -18 2 -18 -3 0 -6 5
-10 10 -10 12 0 -19 -36 -35 -42 -5 -2 -20 -14 -33 -27 -20 -20 -26 -21 -34
-10 -8 11 -9 10 -4 -3 3 -12 -2 -22 -16 -29 -12 -7 -30 -20 -40 -29 -11 -10
-51 -39 -91 -66 -39 -27 -139 -96 -222 -153 -82 -58 -184 -128 -225 -156 -234
-160 -310 -217 -304 -227 5 -7 2 -8 -5 -3 -7 4 -22 -1 -34 -12 -12 -11 -80
-59 -152 -108 -71 -49 -191 -131 -265 -184 l-134 -96 769 -3 770 -2 474 475
c261 261 481 475 487 475 7 0 16 5 20 12 5 7 3 8 -6 3 -9 -5 -11 -4 -6 4 6 9
11 9 22 0 15 -12 6 -28 -41 -74 -5 -5 -25 -28 -44 -50 -19 -22 -57 -65 -85
-96 -28 -30 -73 -81 -101 -114 -49 -57 -252 -290 -447 -512 -54 -62 -98 -115
-98 -118 0 -3 241 -4 536 -3 l537 3 38 63 c21 35 50 85 63 110 13 26 65 121
116 212 108 194 148 266 186 338 16 28 32 52 36 52 4 0 8 7 8 15 0 8 9 24 19
34 11 11 17 22 14 24 -3 3 0 14 6 24 10 17 10 16 11 -4 0 -30 -10 -54 -21 -47
-5 3 -9 2 -10 -3 -3 -32 -14 -63 -51 -138 -22 -47 -45 -85 -50 -85 -4 0 -8 -7
-8 -15 0 -21 -32 -85 -42 -85 -5 0 -7 -4 -4 -9 3 -4 -6 -30 -19 -57 -47 -93
-205 -425 -205 -430 0 -2 173 -4 385 -4 l384 0 10 38 c5 20 19 73 30 117 11
44 29 110 39 148 11 37 17 67 14 67 -3 0 -1 5 6 12 7 7 12 22 12 34 0 13 5 26
10 29 6 4 8 16 4 27 -4 15 -3 18 6 13 9 -5 11 -4 6 3 -6 10 14 110 31 152 3 8
7 27 9 41 2 14 11 39 20 55 14 26 15 27 9 4 -3 -14 -8 -38 -11 -53 -2 -16 -7
-34 -11 -40 -4 -7 -9 -23 -10 -37 -4 -45 -13 -95 -19 -110 -3 -8 -8 -31 -10
-50 -5 -40 -12 -75 -14 -75 -2 0 -7 -25 -19 -100 -7 -38 -21 -107 -31 -153
-33 -137 -77 -122 350 -122 345 0 370 1 371 18 1 9 1 55 -1 101 -1 67 1 82 12
75 10 -6 11 -5 1 7 -15 19 -23 267 -8 272 6 3 6 9 -1 18 -6 8 -11 40 -11 72 0
63 13 89 15 29 1 -20 3 -53 6 -72 2 -19 7 -82 11 -140 4 -58 9 -108 11 -112 2
-3 -4 -14 -13 -24 -17 -17 -17 -18 0 -11 17 6 18 1 17 -51 -1 -31 -1 -61 0
-67 4 -16 7 -48 8 -82 l2 -33 356 0 c334 0 355 1 350 18 -32 102 -46 151 -50
172 -4 23 -44 169 -65 235 -8 27 -20 84 -22 110 0 6 -4 15 -9 20 -4 6 -11 26
-16 45 -4 19 -8 37 -9 40 -1 3 -7 23 -13 44 -6 22 -9 42 -6 45 5 5 20 -41 15
-48 -2 -2 3 -7 9 -11 7 -4 13 -23 15 -41 2 -19 4 -36 5 -39 1 -3 2 -8 1 -12 0
-5 3 -8 9 -8 5 0 10 -9 10 -20 0 -11 5 -20 11 -20 5 0 8 -4 5 -8 -2 -4 1 -21
9 -37 7 -17 39 -109 70 -205 32 -96 67 -199 77 -227 l19 -53 440 0 c241 0 439
3 439 7 0 7 -130 230 -160 273 -27 40 -50 87 -45 94 3 3 2 4 -2 1 -3 -3 -31
37 -60 87 -30 51 -64 108 -76 127 -14 23 -16 32 -6 27 8 -4 3 1 -11 12 -14 12
-21 24 -18 28 4 4 0 13 -10 21 -9 8 -11 11 -3 7 11 -5 13 -3 8 10 -13 33 14
11 36 -29 12 -22 25 -42 29 -45 7 -6 125 -177 193 -281 5 -8 38 -58 73 -110
34 -52 68 -102 75 -113 7 -10 17 -24 22 -30 6 -6 21 -28 34 -48 l23 -38 555 0
c306 0 554 2 552 4 -2 3 -199 200 -436 439 -238 239 -433 442 -433 451 0 10
-5 13 -16 9 -14 -5 -15 -3 -6 14 6 11 8 23 5 27 -3 3 -1 6 5 6 14 0 34 -35 24
-44 -3 -4 1 -4 9 -1 15 6 46 -16 119 -81 143 -128 484 -426 805 -703 l140
-121 695 0 695 0 -173 115 c-94 63 -172 117 -172 120 0 3 81 -49 180 -115
l180 -120 297 2 296 3 -224 134 c-123 74 -289 174 -369 222 -297 178 -1154
677 -1360 791 -25 14 -72 40 -105 58 -33 19 -71 41 -85 50 -14 10 -54 33 -90
53 -36 19 -99 54 -140 77 -41 24 -88 50 -105 58 -16 9 -32 18 -35 21 -3 3 -23
15 -44 26 -22 11 -44 25 -50 30 -6 6 -24 16 -39 23 -19 8 -27 18 -25 30 5 21
38 18 56 -6 7 -9 20 -17 30 -18 47 -2 53 -5 46 -16 -4 -6 -3 -8 3 -5 6 4 91
-32 190 -79 237 -115 545 -262 658 -314 33 -15 110 -51 170 -80 136 -65 501
-235 655 -305 63 -29 164 -76 224 -104 117 -55 120 -56 111 -41 -4 6 4 5 19
-1 14 -7 23 -16 19 -22 -3 -6 -1 -7 6 -3 6 4 64 -19 129 -52 122 -63 480 -225
787 -357 99 -43 220 -95 269 -116 49 -22 91 -39 93 -39 2 0 3 135 3 299 0 230
-3 300 -12 304 -10 4 -10 6 0 6 9 1 12 70 12 310 l0 309 -117 32 c-65 18 -120
35 -123 37 -8 8 59 -7 146 -33 44 -13 83 -24 87 -24 4 0 7 15 7 33 l0 33 -227
69 c-534 160 -1062 314 -1458 425 -426 119 -547 153 -625 177 -47 15 -88 26
-93 25 -4 -1 -7 3 -7 9 0 5 -5 7 -10 4 -5 -3 -10 -1 -10 4 0 6 5 11 10 11 6 0
10 7 10 15 0 8 -3 14 -7 14 -5 -1 -15 -1 -23 0 -13 1 -13 3 -1 10 8 5 21 7 30
4 13 -4 13 -3 2 5 -19 14 3 25 37 18 15 -4 41 -9 57 -12 17 -3 102 -18 190
-35 88 -16 194 -36 235 -44 41 -7 197 -36 345 -64 149 -27 351 -64 450 -81 99
-17 203 -35 230 -40 160 -32 808 -140 841 -140 l25 0 -3 147 -3 147 -225 32
c-124 18 -243 35 -265 38 -22 2 -101 14 -175 25 -74 11 -175 25 -225 32 -49 6
-101 13 -115 15 -162 26 -191 32 -158 33 20 0 59 -4 85 -9 26 -6 82 -14 123
-19 41 -5 203 -28 360 -51 157 -23 356 -52 443 -64 l157 -22 0 397 0 398 -37
4 -38 4 38 1 37 2 0 100 0 100 -197 1 c-109 1 -259 3 -333 5 -74 2 -574 5
-1110 7 -956 3 -975 3 -979 23 -1 10 -10 27 -19 37 -14 16 -13 17 9 17 13 0
132 9 264 20 132 11 272 22 310 25 75 6 264 23 625 56 124 11 270 25 325 29
191 17 506 48 655 65 223 24 421 45 434 45 14 0 16 49 16 455 l0 455 -27 -6
c-16 -3 -161 -41 -323 -85 -765 -203 -1143 -300 -1148 -295 -3 3 -2 6 2 6 4 0
170 43 369 96 199 53 376 100 392 104 237 62 359 94 455 120 63 16 152 40 198
51 l82 21 0 144 c0 79 -3 144 -6 144 -4 0 -52 -11 -108 -24 -55 -13 -191 -45
-301 -71 -236 -55 -1412 -347 -1635 -405 -85 -23 -216 -57 -290 -76 -74 -19
-169 -44 -210 -55 -41 -11 -97 -26 -125 -33 -27 -7 -57 -15 -65 -18 -8 -4 -26
-9 -40 -11 -14 -3 -52 -13 -85 -22 -175 -50 -234 -62 -246 -51 -9 8 -10 8 -5
-1 7 -14 4 -15 -29 -16 -40 0 -55 3 -55 14 0 5 5 7 10 4 6 -3 10 -1 10 5 0 6
5 8 10 5 6 -3 10 -2 10 3 0 5 8 12 18 15 9 3 121 42 247 87 127 45 253 88 280
97 28 8 154 51 280 95 127 44 286 100 355 123 69 24 139 49 155 56 17 7 32 13
35 14 20 5 64 20 120 40 36 13 198 72 360 130 162 58 324 117 360 130 231 86
845 317 893 335 l57 23 0 69 c0 65 -1 68 -19 58 -11 -5 -23 -10 -28 -10 -4 1
4 8 20 16 l27 15 0 269 0 270 -278 0 c-209 0 -281 -3 -291 -12 -11 -10 -13
-10 -7 0 6 9 -92 12 -472 12 l-480 0 -113 -64 c-177 -99 -182 -101 -262 -150
-42 -25 -84 -49 -94 -53 -10 -4 -46 -24 -81 -45 -34 -21 -65 -38 -67 -38 -3 0
-22 -11 -43 -24 -20 -13 -95 -57 -167 -98 -260 -150 -642 -372 -735 -428 -222
-133 -223 -134 -237 -114 -7 10 -13 23 -13 30 0 12 65 62 132 101 20 12 45 29
55 38 10 9 142 101 293 205 151 104 329 226 395 273 66 46 206 144 310 217
105 73 194 137 199 142 6 4 -318 8 -720 8 l-729 0 -332 -332 c-182 -183 -363
-366 -401 -406 -50 -53 -75 -73 -90 -70 -19 3 -17 8 21 53 23 27 67 77 97 110
91 101 230 259 399 455 31 35 74 85 96 110 80 90 133 80 -442 80 l-509 0 -25
-38 c-13 -20 -35 -58 -48 -84 -13 -26 -28 -45 -34 -41 -6 3 -7 1 -3 -6 4 -6 0
-24 -9 -38 -10 -15 -32 -54 -50 -87 -18 -34 -43 -79 -55 -101 -13 -22 -34 -60
-48 -85 -13 -25 -32 -51 -41 -58 -9 -7 -15 -20 -13 -28 3 -17 -46 -104 -59
-104 -5 0 -9 2 -9 5 0 13 133 265 140 265 5 0 8 8 8 18 -1 9 37 97 85 194 48
98 87 180 87 183 0 3 -163 5 -362 5 l-363 0 -31 -128 c-58 -233 -87 -347 -92
-362 -3 -8 -14 -46 -24 -85 -14 -57 -16 -61 -13 -25 7 70 13 115 15 118 2 1 3
5 5 10 11 41 16 60 19 77 1 11 5 27 8 35 6 15 55 268 65 328 l5 32 -353 -2
-354 -3 3 -190 c2 -104 5 -232 7 -282 1 -51 0 -93 -4 -93 -7 0 -15 105 -16
222 0 42 -3 74 -7 72 -3 -2 -6 22 -6 53 0 32 -3 95 -7 141 l-8 82 -328 0
c-257 0 -329 -3 -329 -12 0 -13 9 -46 48 -180 10 -37 17 -70 14 -73 -3 -2 1
-11 7 -19 7 -8 14 -27 17 -43 2 -15 9 -40 15 -55 6 -16 9 -37 6 -48 -3 -11 -1
-20 4 -20 5 0 9 -8 9 -18 0 -10 5 -23 12 -30 7 -7 8 -12 2 -12 -22 0 -96 206
-87 239 4 16 3 22 -5 17 -10 -6 -48 93 -45 122 0 6 -3 12 -8 12 -5 0 -8 3 -7
8 0 4 -1 14 -5 22 -3 8 -11 32 -17 53 l-12 37 -419 0 -420 0 12 -22 c7 -13 38
-67 71 -120 32 -54 58 -102 58 -107 0 -5 4 -11 8 -13 7 -3 72 -104 72 -112 0
-2 20 -37 45 -77 25 -40 45 -79 45 -86 0 -7 4 -13 9 -13 5 0 31 -39 59 -87 28
-49 56 -93 61 -100 6 -7 11 -16 11 -21 0 -5 7 -15 15 -22 8 -6 14 -15 13 -18
-1 -4 12 -29 30 -56 17 -27 30 -52 27 -54 -3 -3 -6 -3 -8 -1 -1 2 -17 25 -35
51 -17 25 -32 50 -32 54 0 4 -7 16 -17 26 -17 19 -32 44 -55 88 -7 14 -21 31
-31 39 -10 7 -16 20 -13 28 4 9 2 11 -6 7 -8 -5 -9 -2 -5 10 4 9 3 15 -2 12
-7 -5 -101 115 -101 129 0 3 -17 28 -37 57 -21 28 -51 73 -68 99 -16 26 -70
106 -119 178 l-89 131 -375 0 -376 0 39 -42 40 -43 -46 43 -45 43 -140 -3
-139 -3 499 -497 c355 -355 492 -498 477 -498 -20 0 -39 13 -105 75 -18 17
-66 59 -106 95 -41 36 -115 101 -164 145 -49 44 -121 107 -160 141 -39 34
-195 170 -346 302 l-275 241 -947 1 c-522 0 -948 -1 -948 -3 0 -3 26 -20 58
-39 82 -50 427 -255 492 -293 30 -17 163 -95 295 -172 132 -77 348 -202 480
-278 233 -133 278 -159 358 -204 83 -46 303 -172 327 -187 14 -8 43 -24 65
-35 22 -11 54 -29 70 -39 17 -11 44 -26 60 -35 80 -41 128 -71 127 -77 -1 -5
-2 -15 -2 -23 0 -8 -4 -15 -9 -15 -9 0 -112 48 -436 205 -72 35 -164 79 -205
98 -41 19 -133 63 -205 97 -71 34 -173 82 -225 107 -102 49 -619 289 -710 330
-30 14 -113 52 -185 85 -201 93 -245 113 -315 143 -36 15 -76 33 -90 40 -14 7
-169 77 -344 154 l-318 141 -194 0 -194 0 0 -543z m3915 513 c10 -11 16 -20
13 -20 -3 0 -13 9 -23 20 -10 11 -16 20 -13 20 3 0 13 -9 23 -20z m7475 -5 c0
-2 -10 -9 -22 -15 -22 -11 -22 -10 -4 4 21 17 26 19 26 11z m-90 -50 c0 -2
-10 -9 -22 -15 -22 -11 -22 -10 -4 4 21 17 26 19 26 11z m-70 -40 c0 -2 -10
-9 -22 -15 -22 -11 -22 -10 -4 4 21 17 26 19 26 11z m-7595 -35 c10 -11 16
-20 13 -20 -3 0 -13 9 -23 20 -10 11 -16 20 -13 20 3 0 13 -9 23 -20z m7525
-5 c0 -2 -10 -9 -22 -15 -22 -11 -22 -10 -4 4 21 17 26 19 26 11z m-70 -40 c0
-2 -10 -9 -22 -15 -22 -11 -22 -10 -4 4 21 17 26 19 26 11z m-70 -40 c0 -2
-10 -9 -22 -15 -22 -11 -22 -10 -4 4 21 17 26 19 26 11z m-50 -29 c0 -2 -7 -7
-16 -10 -8 -3 -12 -2 -9 4 6 10 25 14 25 6z m-49 -30 c-11 -13 -51 -29 -51
-20 0 3 51 33 59 34 2 0 -2 -6 -8 -14z m-131 -71 c0 -2 -10 -9 -22 -15 -22
-11 -22 -10 -4 4 21 17 26 19 26 11z m-50 -30 c0 -2 -13 -11 -30 -20 -38 -19
-40 -11 -2 9 31 17 32 18 32 11z m-90 -50 c0 -2 -18 -14 -41 -26 -23 -11 -38
-16 -34 -9 3 6 21 17 38 24 40 18 37 17 37 11z m-100 -60 c-7 -8 -18 -15 -24
-15 -6 0 -2 7 8 15 25 19 32 19 16 0z m-10466 -24 c4 -5 -3 -7 -14 -4 -23 6
-26 13 -6 13 8 0 17 -4 20 -9z m5256 -22 c0 -11 5 -29 10 -40 7 -12 7 -19 1
-19 -5 0 -13 10 -16 23 -4 12 -9 30 -11 40 -3 9 -1 17 5 17 6 0 11 -9 11 -21z
m6599 -14 c-9 -9 -152 -65 -156 -61 -2 2 29 17 69 34 70 29 97 38 87 27z
m-11719 -15 c8 -5 11 -10 5 -10 -5 0 -17 5 -25 10 -8 5 -10 10 -5 10 6 0 17
-5 25 -10z m10200 5 c0 -2 -10 -9 -22 -15 -22 -11 -22 -10 -4 4 21 17 26 19
26 11z m-4523 -72 c-3 -10 -5 -2 -5 17 0 19 2 27 5 18 2 -10 2 -26 0 -35z
m4423 13 c0 -2 -7 -7 -16 -10 -8 -3 -12 -2 -9 4 6 10 25 14 25 6z m1448 -1
c-8 -9 -441 -185 -445 -182 -4 4 425 185 441 186 5 1 7 -1 4 -4z m-5298 -20
c0 -8 -4 -15 -10 -15 -5 0 -7 7 -4 15 4 8 8 15 10 15 2 0 4 -7 4 -15z m-1092
-32 c6 -21 15 -53 21 -72 7 -22 7 -31 1 -25 -6 6 -12 19 -14 30 -3 10 -11 38
-20 62 -8 23 -11 42 -7 42 5 0 13 -17 19 -37z m1672 9 c0 -5 -9 -17 -20 -27
-19 -17 -19 -17 -7 9 12 25 27 35 27 18z m3160 -17 c0 -2 -10 -9 -22 -15 -22
-11 -22 -10 -4 4 21 17 26 19 26 11z m-9600 -25 c8 -5 11 -10 5 -10 -5 0 -17
5 -25 10 -8 5 -10 10 -5 10 6 0 17 -5 25 -10z m6388 -49 c-12 -22 -24 -38 -26
-36 -6 6 30 75 39 75 5 0 -1 -18 -13 -39z m-561 -3 c-3 -8 -6 -5 -6 6 -1 11 2
17 5 13 3 -3 4 -12 1 -19z m-5607 -28 c8 -5 11 -10 5 -10 -5 0 -17 5 -25 10
-8 5 -10 10 -5 10 6 0 17 -5 25 -10z m10445 -40 c-54 -24 -240 -102 -480 -200
-280 -115 -433 -179 -482 -201 -23 -10 -45 -19 -48 -19 -4 0 -23 -7 -43 -16
-21 -9 -52 -22 -71 -30 -18 -8 -35 -13 -37 -11 -6 5 93 47 651 276 83 33 236
97 340 140 105 44 195 80 200 79 6 0 -8 -8 -30 -18z m-10305 -10 c8 -5 11 -10
5 -10 -5 0 -17 5 -25 10 -8 5 -10 10 -5 10 6 0 17 -5 25 -10z m223 -77 c15 -3
30 -10 33 -15 8 -12 -44 1 -76 19 -16 9 -18 12 -5 8 11 -4 32 -9 48 -12z
m3677 -18 c7 -9 8 -15 2 -15 -5 0 -12 7 -16 15 -3 8 -4 15 -2 15 2 0 9 -7 16
-15z m-3590 -15 c13 -9 13 -10 0 -10 -8 0 -22 5 -30 10 -13 9 -13 10 0 10 8 0
22 -5 30 -10z m7122 -28 c107 -53 144 -120 136 -251 -8 -131 -58 -212 -173
-278 -27 -16 -50 -35 -50 -42 0 -8 15 -18 34 -25 65 -21 94 -92 81 -196 -4
-30 -16 -112 -26 -182 l-19 -126 -95 -7 c-52 -3 -117 -7 -145 -8 l-50 -2 -3
42 c-2 24 6 98 18 165 23 136 20 168 -18 199 -25 19 -37 21 -149 17 -67 -1
-126 -7 -132 -13 -5 -5 -24 -93 -41 -195 -17 -102 -34 -196 -39 -210 -7 -24
-11 -25 -152 -36 -79 -6 -146 -9 -148 -7 -5 4 6 80 45 298 106 604 144 829
144 845 0 12 7 20 18 21 9 0 103 7 207 14 105 7 258 12 340 12 148 -2 152 -2
217 -35z m-802 0 c0 -4 -4 -12 -9 -17 -5 -6 -16 -55 -25 -110 -10 -55 -21
-104 -26 -109 -4 -4 -133 -15 -287 -23 -153 -9 -283 -20 -290 -25 -15 -12 -39
-176 -27 -186 5 -5 101 -3 214 4 280 17 325 17 312 2 -6 -7 -18 -56 -27 -108
-10 -52 -21 -99 -25 -104 -5 -4 -122 -15 -262 -23 -161 -9 -257 -19 -265 -26
-15 -16 -40 -195 -27 -206 5 -5 97 -3 219 5 222 14 365 17 365 9 0 -3 -4 -13
-10 -23 -5 -9 -17 -57 -25 -106 -8 -50 -20 -95 -27 -102 -9 -8 -152 -20 -448
-37 -239 -13 -436 -24 -437 -23 -2 2 83 494 101 586 9 41 34 188 57 325 23
138 42 251 43 252 0 1 127 9 281 18 154 9 334 20 400 24 169 11 225 12 225 3z
m-6130 -44 c10 -6 7 -7 -10 -2 -14 3 -32 11 -40 16 -10 6 -7 7 10 2 14 -3 32
-11 40 -16z m4960 -59 c70 -32 123 -78 145 -125 28 -60 47 -190 35 -251 -13
-71 -101 -205 -168 -256 -99 -75 -200 -102 -418 -113 -74 -4 -141 -12 -148
-18 -8 -7 -26 -82 -44 -189 -16 -98 -33 -181 -37 -185 -3 -4 -71 -11 -151 -17
-141 -10 -144 -10 -144 10 0 11 14 97 30 190 82 458 127 719 147 845 9 58 18
107 20 110 8 9 389 28 533 26 133 -1 150 -4 200 -27z m-4820 11 c8 -5 11 -10
5 -10 -5 0 -17 5 -25 10 -8 5 -10 10 -5 10 6 0 17 -5 25 -10z m4070 -15 c0 -3
-4 -13 -10 -23 -5 -9 -39 -184 -74 -387 -71 -404 -94 -488 -166 -588 -98 -136
-280 -207 -529 -207 -249 1 -387 89 -410 263 l-7 52 -41 -86 c-67 -137 -167
-214 -342 -261 -61 -17 -107 -21 -236 -22 -145 0 -165 2 -218 23 -131 52 -185
124 -194 259 l-6 79 84 6 c46 4 117 7 157 7 l72 0 0 -29 c0 -36 42 -89 87
-107 18 -8 56 -14 86 -14 159 0 272 101 211 189 -26 36 -72 50 -227 66 -154
16 -211 31 -268 71 -56 39 -82 95 -87 189 -14 262 180 432 513 452 121 7 198
-6 282 -47 101 -50 145 -116 160 -239 7 -64 1 -67 -159 -74 l-127 -7 -11 34
c-21 64 -85 106 -163 106 -104 0 -187 -55 -187 -125 0 -43 13 -71 41 -86 12
-6 84 -17 160 -24 186 -18 257 -42 324 -109 41 -42 55 -64 72 -121 20 -68 21
-69 27 -35 3 19 17 98 30 175 14 77 41 234 61 350 20 115 41 213 47 216 12 8
298 22 305 16 2 -3 0 -13 -6 -24 -20 -33 -133 -714 -126 -758 18 -116 113
-161 253 -120 61 19 104 52 138 110 26 45 42 118 104 485 17 102 35 204 41
227 5 23 9 56 9 72 0 36 9 40 125 44 174 7 205 7 205 2z m-3960 -25 c8 -5 11
-10 5 -10 -5 0 -17 5 -25 10 -8 5 -10 10 -5 10 6 0 17 -5 25 -10z m110 -40 c8
-5 11 -10 5 -10 -5 0 -17 5 -25 10 -8 5 -10 10 -5 10 6 0 17 -5 25 -10z m85
-30 c13 -6 15 -9 5 -9 -8 0 -22 4 -30 9 -18 12 -2 12 25 0z m280 -100 c22 -11
29 -17 15 -14 -38 10 -87 32 -70 33 8 0 33 -8 55 -19z m110 -42 c7 -7 1 -8
-15 -3 -40 12 -59 26 -25 19 17 -4 35 -11 40 -16z m7794 7 c-9 -8 -201 -86
-205 -82 -2 2 40 22 94 45 89 38 122 49 111 37z m-229 -95 c-8 -5 -19 -10 -25
-10 -5 0 -3 5 5 10 8 5 20 10 25 10 6 0 3 -5 -5 -10z m-120 -50 c-8 -5 -19
-10 -25 -10 -5 0 -3 5 5 10 8 5 20 10 25 10 6 0 3 -5 -5 -10z m-8220 -22 c10
-6 3 -7 -20 -2 -54 10 -83 25 -35 18 22 -4 47 -11 55 -16z m1230 -4 c0 -9 -28
-3 -46 11 -17 13 -16 14 14 4 17 -6 32 -13 32 -15z m-1180 -14 c0 -5 -7 -7
-15 -4 -8 4 -15 8 -15 10 0 2 7 4 15 4 8 0 15 -4 15 -10z m1225 0 c8 -13 -5
-13 -25 0 -13 8 -13 10 2 10 9 0 20 -4 23 -10z m-1170 -10 c13 -5 14 -9 5 -9
-8 0 -24 4 -35 9 -13 5 -14 9 -5 9 8 0 24 -4 35 -9z m75 -20 c20 -6 21 -8 5
-8 -11 0 -29 3 -40 8 -25 11 1 11 35 0z m87 -26 c-3 -3 -12 -4 -19 -1 -8 3 -5
6 6 6 11 1 17 -2 13 -5z m1168 -4 c3 -5 1 -10 -4 -10 -6 0 -11 5 -11 10 0 6 2
10 4 10 3 0 8 -4 11 -10z m-1058 -26 c-3 -3 -12 -4 -19 -1 -8 3 -5 6 6 6 11 1
17 -2 13 -5z m40 -10 c-3 -3 -12 -4 -19 -1 -8 3 -5 6 6 6 11 1 17 -2 13 -5z
m8540 -160 c-3 -3 -12 -4 -19 -1 -8 3 -5 6 6 6 11 1 17 -2 13 -5z m-40 -10
c-3 -3 -12 -4 -19 -1 -8 3 -5 6 6 6 11 1 17 -2 13 -5z m-40 -10 c-3 -3 -12 -4
-19 -1 -8 3 -5 6 6 6 11 1 17 -2 13 -5z m-150 -40 c-3 -3 -12 -4 -19 -1 -8 3
-5 6 6 6 11 1 17 -2 13 -5z m1683 -84 c-8 -5 -28 -9 -45 -9 -30 2 -30 2 5 9
51 11 57 11 40 0z m-11852 -27 c-10 -2 -26 -2 -35 0 -10 3 -2 5 17 5 19 0 27
-2 18 -5z m75 -10 c-7 -2 -21 -2 -30 0 -10 3 -4 5 12 5 17 0 24 -2 18 -5z
m155 -18 c7 -7 -21 -6 -85 1 -29 4 -53 10 -53 14 0 7 130 -6 138 -15z m11340
8 c-10 -2 -26 -2 -35 0 -10 3 -2 5 17 5 19 0 27 -2 18 -5z m-75 -10 c-7 -2
-19 -2 -25 0 -7 3 -2 5 12 5 14 0 19 -2 13 -5z m-11205 -10 c-10 -2 -26 -2
-35 0 -10 3 -2 5 17 5 19 0 27 -2 18 -5z m70 -10 c-10 -2 -26 -2 -35 0 -10 3
-2 5 17 5 19 0 27 -2 18 -5z m70 -10 c-10 -2 -26 -2 -35 0 -10 3 -2 5 17 5 19
0 27 -2 18 -5z m70 -10 c-10 -2 -26 -2 -35 0 -10 3 -2 5 17 5 19 0 27 -2 18
-5z m75 -10 c-7 -2 -21 -2 -30 0 -10 3 -4 5 12 5 17 0 24 -2 18 -5z m10640 0
c-7 -2 -21 -2 -30 0 -10 3 -4 5 12 5 17 0 24 -2 18 -5z m-10570 -10 c-7 -2
-21 -2 -30 0 -10 3 -4 5 12 5 17 0 24 -2 18 -5z m70 -10 c-7 -2 -21 -2 -30 0
-10 3 -4 5 12 5 17 0 24 -2 18 -5z m70 -10 c-7 -2 -21 -2 -30 0 -10 3 -4 5 12
5 17 0 24 -2 18 -5z m75 -10 c-10 -2 -26 -2 -35 0 -10 3 -2 5 17 5 19 0 27 -2
18 -5z m75 -10 c-7 -2 -21 -2 -30 0 -10 3 -4 5 12 5 17 0 24 -2 18 -5z m65
-10 c-10 -2 -26 -2 -35 0 -10 3 -2 5 17 5 19 0 27 -2 18 -5z m75 -10 c-7 -2
-21 -2 -30 0 -10 3 -4 5 12 5 17 0 24 -2 18 -5z m9717 3 c0 -3 -4 -8 -10 -11
-5 -3 -10 -1 -10 4 0 6 5 11 10 11 6 0 10 -2 10 -4z m-9642 -13 c-10 -2 -28
-2 -40 0 -13 2 -5 4 17 4 22 1 32 -1 23 -4z m9595 0 c-7 -2 -21 -2 -30 0 -10
3 -4 5 12 5 17 0 24 -2 18 -5z m-9530 -10 c-7 -2 -21 -2 -30 0 -10 3 -4 5 12
5 17 0 24 -2 18 -5z m77 -9 c0 -2 -13 -4 -30 -4 -16 0 -30 4 -30 8 0 5 14 7
30 4 17 -2 30 -6 30 -8z m9387 10 c-3 -3 -12 -4 -19 -1 -8 3 -5 6 6 6 11 1 17
-2 13 -5z m-60 -10 c-3 -3 -12 -4 -19 -1 -8 3 -5 6 6 6 11 1 17 -2 13 -5z
m-9270 -10 c-3 -3 -12 -4 -19 -1 -8 3 -5 6 6 6 11 1 17 -2 13 -5z m71 -11
c-10 -2 -26 -2 -35 0 -10 3 -2 5 17 5 19 0 27 -2 18 -5z m75 -10 c-7 -2 -19
-2 -25 0 -7 3 -2 5 12 5 14 0 19 -2 13 -5z m165 -20 c-10 -2 -26 -2 -35 0 -10
3 -2 5 17 5 19 0 27 -2 18 -5z m5267 -202 c-3 -10 -14 -62 -24 -115 -10 -53
-21 -99 -24 -102 -3 -3 -122 -12 -264 -20 -142 -8 -267 -17 -279 -19 -17 -4
-23 -17 -33 -74 -6 -39 -11 -82 -11 -96 0 -24 3 -26 28 -21 40 7 472 30 477
24 6 -6 -34 -211 -43 -219 -4 -4 -116 -13 -249 -20 -133 -7 -247 -15 -253 -19
-13 -8 -45 -182 -37 -203 4 -11 16 -13 59 -6 67 9 499 31 505 25 2 -2 0 -12
-6 -23 -5 -10 -17 -60 -25 -112 -8 -51 -18 -96 -21 -99 -3 -3 -184 -16 -403
-28 -218 -13 -410 -25 -426 -27 l-28 -4 6 51 c4 28 18 112 31 186 13 74 52
297 86 495 34 198 65 369 69 381 8 19 21 21 262 34 139 7 298 16 353 20 55 4
135 8 178 9 72 1 78 0 72 -18z m-1415 -66 c0 -3 -4 -13 -10 -23 -14 -25 -150
-820 -143 -838 4 -12 16 -14 52 -10 25 3 105 8 176 11 72 3 161 8 199 11 69 6
69 6 63 -17 -4 -13 -14 -67 -23 -119 -9 -52 -19 -98 -23 -101 -3 -4 -154 -14
-336 -24 -181 -9 -358 -20 -392 -24 -51 -6 -63 -5 -63 7 0 12 25 159 60 352 6
30 21 118 34 195 79 455 98 561 104 567 10 10 302 23 302 13z m-652 -568 c51
-292 93 -540 93 -549 -1 -22 -18 -25 -163 -32 l-117 -6 -6 32 c-3 18 -9 56
-13 83 l-8 50 -114 -2 c-63 -1 -161 -4 -218 -8 l-103 -7 -44 -87 -44 -88 -62
-7 c-34 -3 -87 -6 -118 -6 -31 0 -73 -4 -93 -9 -28 -7 -38 -6 -38 3 0 13 566
1125 579 1139 7 7 198 23 316 25 l60 2 93 -533z m-1161 458 c67 -20 141 -70
175 -120 31 -44 54 -139 44 -179 -6 -25 -10 -26 -79 -27 -39 -1 -99 -4 -132
-8 l-59 -6 -26 50 c-31 63 -72 85 -154 85 -105 0 -176 -52 -176 -128 0 -17 8
-39 18 -51 18 -23 48 -29 237 -50 50 -6 107 -15 127 -21 55 -16 128 -69 163
-118 29 -42 30 -48 30 -145 0 -83 -5 -111 -23 -150 -64 -141 -201 -227 -414
-258 -117 -17 -288 -7 -363 21 -73 27 -145 96 -162 155 -17 56 -27 161 -17
167 5 3 73 9 152 13 l142 7 0 -24 c0 -31 33 -83 67 -105 42 -28 173 -25 235 6
82 39 112 111 67 160 -31 33 -57 40 -213 56 -174 19 -227 35 -280 89 -49 48
-66 98 -66 188 0 218 154 365 425 408 78 12 216 5 282 -15z m5167 -17 c-20
-36 -26 -39 -46 -21 -14 13 -16 18 -6 25 21 13 60 10 52 -4z m263 -72 c-10 -8
-143 -198 -296 -422 -276 -405 -279 -409 -317 -415 -22 -3 -50 -9 -63 -13 -18
-6 -22 -5 -15 5 4 8 136 201 292 429 275 403 284 415 320 421 20 3 51 7 67 7
27 1 28 0 12 -12z m-456 -39 c53 -35 71 -79 65 -158 -8 -92 -39 -187 -77 -233
-45 -53 -98 -76 -182 -76 -98 0 -146 29 -165 100 l-9 35 -7 -35 c-36 -177 -78
-287 -135 -352 -77 -88 -197 -133 -336 -126 -134 8 -210 60 -245 172 -19 58
-7 243 21 331 67 215 164 305 361 336 115 18 234 -19 285 -88 23 -32 53 -111
54 -146 1 -25 0 -27 29 71 37 129 116 191 241 192 52 0 73 -5 100 -23z m-1076
-54 c-4 -10 -11 -45 -17 -78 -6 -33 -15 -63 -20 -66 -6 -4 -80 -10 -166 -13
-87 -4 -165 -9 -174 -12 -16 -5 -48 -90 -48 -128 0 -15 3 -15 29 -1 85 44 226
23 292 -44 51 -51 65 -105 50 -194 -26 -158 -117 -251 -279 -286 -114 -24
-247 -7 -307 41 -33 26 -64 91 -65 134 l0 31 102 8 c75 5 103 4 106 -5 2 -6
14 -23 26 -37 18 -21 32 -26 67 -26 51 0 103 24 120 55 35 65 28 153 -14 183
-47 33 -149 7 -177 -44 -9 -17 -21 -21 -63 -22 -29 0 -73 -4 -100 -8 -41 -7
-47 -6 -43 8 8 28 149 486 150 488 3 4 367 28 490 31 42 2 47 0 41 -15z
m-7407 -40 c-42 -2 -114 -2 -160 0 -46 1 -11 3 77 3 88 0 125 -2 83 -3z m854
-10 c-50 -2 -134 -2 -185 0 -50 1 -9 3 93 3 102 0 143 -2 92 -3z m145 1 c-3
-3 -12 -4 -19 -1 -8 3 -5 6 6 6 11 1 17 -2 13 -5z m301 -1 c-16 -2 -40 -2 -55
0 -16 2 -3 4 27 4 30 0 43 -2 28 -4z m560 -10 c-10 -2 -26 -2 -35 0 -10 3 -2
5 17 5 19 0 27 -2 18 -5z m9152 -27 c0 -3 -4 -8 -10 -11 -5 -3 -10 -1 -10 4 0
6 5 11 10 11 6 0 10 -2 10 -4z m493 -3 c-79 -2 -207 -2 -285 0 -79 1 -15 3
142 3 157 0 221 -2 143 -3z m-2506 -163 c53 -32 68 -65 67 -145 -1 -86 -23
-164 -64 -228 -39 -63 -108 -97 -195 -97 -117 0 -170 53 -169 169 2 138 57
251 145 295 68 33 167 37 216 6z m-7239 -237 c-16 -2 -40 -2 -55 0 -16 2 -3 4
27 4 30 0 43 -2 28 -4z m-135 -10 c-7 -2 -21 -2 -30 0 -10 3 -4 5 12 5 17 0
24 -2 18 -5z m-125 -10 c-10 -2 -26 -2 -35 0 -10 3 -2 5 17 5 19 0 27 -2 18
-5z m-95 -10 c-13 -2 -33 -2 -45 0 -13 2 -3 4 22 4 25 0 35 -2 23 -4z m-178
-14 c-175 -19 -255 -24 -255 -17 0 4 24 8 53 9 28 1 77 4 107 9 30 4 82 7 115
7 58 0 57 0 -20 -8z m-287 -26 c-16 -2 -40 -2 -55 0 -16 2 -3 4 27 4 30 0 43
-2 28 -4z m-110 -10 c-16 -2 -40 -2 -55 0 -16 2 -3 4 27 4 30 0 43 -2 28 -4z
m8646 -2 c4 -5 -3 -7 -14 -4 -23 6 -26 13 -6 13 8 0 17 -4 20 -9z m-8844 -11
c0 -6 -25 -9 -57 -8 l-58 1 55 7 c30 4 56 7 58 8 1 1 2 -2 2 -8z m83 3 c-13
-2 -35 -2 -50 0 -16 2 -5 4 22 4 28 0 40 -2 28 -4z m-213 -19 c-36 -8 -100 -9
-100 -2 0 5 26 7 58 7 31 -1 50 -3 42 -5z m-132 -11 c-16 -2 -40 -2 -55 0 -16
2 -3 4 27 4 30 0 43 -2 28 -4z m9369 1 c-3 -3 -12 -4 -19 -1 -8 3 -5 6 6 6 11
1 17 -2 13 -5z m-9489 -11 c-16 -2 -40 -2 -55 0 -16 2 -3 4 27 4 30 0 43 -2
28 -4z m9555 0 c-7 -2 -21 -2 -30 0 -10 3 -4 5 12 5 17 0 24 -2 18 -5z m-9665
-10 c-16 -2 -40 -2 -55 0 -16 2 -3 4 27 4 30 0 43 -2 28 -4z m9872 -14 c126
-19 166 -27 137 -28 -27 -1 -184 21 -277 39 -41 8 -40 8 15 4 33 -3 89 -9 125
-15z m-9995 4 c-22 -2 -73 -7 -112 -12 -40 -4 -73 -4 -73 0 0 5 21 10 48 12
63 5 188 5 137 0z m10340 -54 c82 -11 152 -23 155 -26 8 -9 -296 30 -325 42
-23 8 29 4 170 -16z m-1065 -79 c0 -5 -2 -10 -4 -10 -3 0 -8 5 -11 10 -3 6 -1
10 4 10 6 0 11 -4 11 -10z m-20 -14 c0 -3 -4 -8 -10 -11 -5 -3 -10 -1 -10 4 0
6 5 11 10 11 6 0 10 -2 10 -4z m-1351 -173 c-4 -16 -11 -40 -14 -55 -6 -33
-16 -35 -205 -43 -104 -5 -138 -10 -147 -21 -11 -15 -29 -131 -21 -139 2 -2
73 0 158 5 84 5 155 9 156 7 4 -3 -21 -96 -27 -102 -4 -3 -73 -10 -154 -14
-81 -5 -151 -13 -156 -18 -4 -4 -18 -68 -30 -141 -20 -117 -25 -133 -43 -137
-22 -4 -126 -13 -126 -11 0 1 15 89 34 196 19 107 45 254 57 327 12 73 25 137
28 142 3 5 85 12 181 16 96 4 177 9 179 11 2 2 35 4 72 4 l67 0 -9 -27z m-552
-45 c-5 -24 -11 -48 -13 -55 -4 -18 -30 -21 -197 -29 -169 -7 -159 -1 -172
-108 l-8 -58 109 6 c60 4 133 9 163 12 45 5 53 3 48 -9 -3 -9 -9 -32 -13 -51
-3 -20 -10 -39 -15 -42 -5 -3 -75 -9 -156 -14 -81 -6 -150 -13 -154 -17 -4 -5
-17 -66 -28 -138 -12 -71 -25 -133 -29 -136 -4 -4 -37 -9 -74 -11 -64 -4 -67
-3 -63 17 5 22 50 279 86 494 13 73 29 140 37 147 9 10 41 14 100 15 48 1 125
4 172 8 47 3 115 8 151 9 l66 3 -10 -43z m-730 -31 c96 -49 135 -144 115 -280
-17 -114 -46 -179 -108 -246 -111 -120 -315 -162 -451 -93 -84 43 -116 108
-115 228 1 162 74 296 203 372 97 58 262 67 356 19z m-657 -9 c0 -28 -18 -37
-80 -40 l-65 -3 -3 -33 -3 -33 60 7 c34 4 61 3 61 -2 -1 -26 -23 -38 -79 -42
l-61 -4 0 -35 0 -35 66 6 c64 6 65 6 62 -16 -3 -22 -9 -23 -98 -29 -52 -4 -96
-5 -98 -4 -1 1 7 61 19 133 l22 131 66 4 c36 2 81 4 99 5 20 1 32 -3 32 -10z
m-250 -35 c-5 -16 -16 -74 -26 -130 -16 -96 -18 -101 -43 -106 -14 -3 -27 -5
-27 -4 -1 1 4 34 12 72 24 124 17 128 -37 23 -41 -83 -53 -98 -73 -98 -20 0
-25 6 -29 43 -4 23 -9 64 -13 90 -8 62 -19 50 -33 -38 -17 -100 -19 -105 -47
-105 -23 0 -24 3 -19 33 3 17 14 77 23 132 l18 100 46 3 46 3 7 -58 c13 -117
17 -118 63 -20 l41 87 50 0 50 0 -9 -27z m-420 -1 c0 -21 -28 -41 -60 -44
l-34 -3 -18 -104 c-9 -57 -18 -104 -20 -106 -2 -1 -15 -5 -31 -9 -25 -6 -27
-4 -22 16 13 59 33 193 29 200 -2 3 -20 4 -39 1 -26 -4 -35 -2 -35 8 0 30 18
38 85 42 39 1 87 4 108 5 20 1 37 -2 37 -6z m77 -5 c-3 -7 -13 -61 -22 -119
-10 -58 -20 -110 -24 -115 -3 -6 -18 -13 -32 -16 l-25 -6 18 102 c9 56 20 117
23 135 5 28 10 32 37 32 20 0 29 -4 25 -13z m-471 -41 c51 -44 31 -158 -37
-209 -26 -19 -182 -47 -194 -35 -6 6 32 245 41 260 3 4 41 8 84 8 69 0 82 -3
106 -24z m-236 -6 c-7 -14 -21 -20 -43 -20 -18 0 -49 -3 -69 -6 -34 -6 -38
-10 -38 -36 l0 -30 60 4 c56 3 61 1 58 -17 -3 -17 -13 -21 -68 -25 -65 -5 -65
-5 -68 -37 l-3 -33 69 0 c65 0 70 -1 65 -20 -4 -13 -14 -20 -32 -21 -14 0 -59
-4 -99 -8 -70 -7 -73 -6 -68 14 2 11 12 70 22 130 9 61 22 113 28 117 6 4 53
8 104 8 90 0 92 -1 82 -20z m-222 -7 c-2 -12 -18 -21 -44 -27 l-41 -8 -19
-107 c-18 -103 -20 -106 -46 -109 -33 -4 -32 -8 -13 91 8 43 15 90 15 104 0
23 -3 25 -35 21 -32 -4 -36 -2 -33 16 3 23 42 32 156 34 55 2 63 0 60 -15z
m-239 -5 c0 -7 -10 -67 -22 -133 -22 -117 -23 -120 -50 -123 -15 -2 -27 0 -27
4 0 17 42 249 46 256 8 13 54 9 53 -4z m-109 -30 c-4 -18 -16 -77 -25 -130
-11 -66 -21 -98 -30 -98 -7 0 -20 -2 -27 -5 -12 -5 -12 9 2 90 9 52 14 95 10
95 -3 0 -27 -43 -53 -95 -39 -80 -51 -95 -71 -95 -22 0 -24 6 -36 91 -6 50
-15 87 -18 84 -4 -4 -14 -46 -22 -93 -14 -83 -16 -87 -42 -90 -31 -4 -31 -18
2 168 l16 95 46 3 45 3 12 -77 c6 -43 14 -80 16 -82 3 -3 23 34 45 81 l41 87
49 0 48 0 -8 -32z m-343 -1 c-3 -7 -13 -61 -22 -119 -10 -58 -20 -110 -24
-115 -3 -6 -18 -13 -32 -16 l-25 -7 17 103 c10 56 21 117 24 135 5 28 10 32
37 32 20 0 29 -4 25 -13z m-207 1 c0 -2 -9 -49 -19 -106 -11 -63 -15 -105 -9
-108 5 -3 34 -3 65 1 54 7 55 6 48 -17 -4 -12 -8 -24 -9 -24 0 -1 -40 -4 -88
-7 -60 -3 -88 -1 -88 6 0 6 10 66 22 134 l21 123 29 0 c15 0 28 -1 28 -2z
m-253 -19 c51 -19 58 -65 17 -106 -18 -18 -22 -29 -15 -36 14 -14 14 -72 1
-98 -6 -10 -20 -19 -31 -19 -17 0 -20 6 -18 46 3 52 -6 62 -55 56 -32 -4 -34
-6 -40 -52 -6 -42 -10 -48 -34 -53 -15 -3 -28 -4 -30 -2 -2 2 7 61 20 131 l23
129 55 6 c30 3 60 6 67 7 6 1 24 -3 40 -9z m-246 -38 c36 -37 39 -88 7 -151
-29 -56 -64 -81 -122 -87 -91 -11 -132 29 -124 117 9 89 74 150 160 150 41 0
54 -5 79 -29z m-231 10 c0 -26 -34 -41 -90 -41 -54 0 -58 -2 -64 -26 -4 -15
-4 -29 -1 -33 4 -3 33 -4 66 -3 32 2 59 0 59 -5 -1 -23 -22 -33 -78 -39 l-61
-7 -6 -42 c-8 -52 -14 -60 -46 -68 l-25 -6 18 102 c9 56 20 116 23 134 5 31 8
32 58 36 108 7 147 7 147 -2z m7475 -21 l20 -9 -20 0 c-11 0 -27 4 -35 9 -13
9 -13 10 0 9 8 0 24 -4 35 -9z m82 -26 c-3 -3 -12 -4 -19 -1 -8 3 -5 6 6 6 11
1 17 -2 13 -5z m-2176 -13 c7 11 9 10 9 -3 0 -10 5 -18 10 -18 6 0 10 -5 10
-10 0 -6 -11 -3 -25 6 -14 9 -25 21 -24 28 0 6 3 5 6 -3 5 -11 7 -11 14 0z
m2304 -21 c33 -11 44 -17 25 -13 -19 3 -60 14 -90 24 -30 10 -41 16 -25 13 17
-2 57 -13 90 -24z m168 -45 c37 -10 65 -20 63 -22 -2 -2 -24 1 -47 7 -24 6
-61 16 -81 21 -21 5 -38 14 -38 20 0 6 7 6 18 1 9 -5 47 -17 85 -27z m122 -35
c13 -5 14 -9 5 -9 -8 0 -24 4 -35 9 -13 5 -14 9 -5 9 8 0 24 -4 35 -9z m265
-71 c338 -95 399 -113 396 -117 -4 -3 -158 37 -296 78 -36 11 -126 36 -200 56
-74 20 -137 39 -140 41 -8 9 58 -7 240 -58z m-9515 -129 c-27 -12 -43 -12 -25
0 8 5 22 9 30 9 10 0 8 -3 -5 -9z m8435 -10 c13 -8 13 -10 -2 -10 -9 0 -20 5
-23 10 -8 13 5 13 25 0z m-8650 -60 c-8 -5 -22 -9 -30 -9 -10 0 -8 3 5 9 27
12 43 12 25 0z m-125 -40 c-27 -10 -57 -18 -65 -18 -8 0 8 8 35 18 28 10 57
18 65 18 8 0 -7 -8 -35 -18z m1769 -4 c-3 -8 2 -16 13 -19 13 -3 14 -5 2 -6
-8 0 -24 6 -35 15 -10 8 -14 13 -7 10 6 -4 14 -2 18 4 9 15 15 12 9 -4z m7266
4 c8 -5 11 -10 5 -10 -5 0 -17 5 -25 10 -8 5 -10 10 -5 10 6 0 17 -5 25 -10z
m50 -20 c8 -5 11 -10 5 -10 -5 0 -17 5 -25 10 -8 5 -10 10 -5 10 6 0 17 -5 25
-10z m50 -20 c8 -5 11 -10 5 -10 -5 0 -17 5 -25 10 -8 5 -10 10 -5 10 6 0 17
-5 25 -10z m-9380 -39 c-46 -19 -119 -37 -110 -28 8 8 123 46 140 46 8 0 -5
-8 -30 -18z m9535 -22 c15 -14 -7 -10 -35 7 l-25 15 25 -7 c14 -3 29 -10 35
-15z m-9810 -65 c-38 -13 -74 -23 -80 -21 -11 4 111 45 135 45 8 0 -16 -10
-55 -24z m10015 -14 c13 -8 13 -10 -2 -10 -9 0 -20 5 -23 10 -8 13 5 13 25 0z
m-8630 -20 c-8 -5 -19 -10 -25 -10 -5 0 -3 5 5 10 8 5 20 10 25 10 6 0 3 -5
-5 -10z m8680 0 c8 -5 11 -10 5 -10 -5 0 -17 5 -25 10 -8 5 -10 10 -5 10 6 0
17 -5 25 -10z m-10300 -41 c-46 -16 -88 -28 -93 -26 -10 3 143 56 163 56 8 0
-23 -14 -70 -30z m10395 5 c36 -15 64 -28 62 -30 -3 -4 -128 44 -136 52 -10 9
12 3 74 -22z m-1141 7 c4 -5 -3 -7 -14 -4 -23 6 -26 13 -6 13 8 0 17 -4 20 -9z
m-1897 -21 c-1 -21 -21 -27 -32 -10 -4 6 -1 9 7 8 7 -2 12 3 11 10 -2 6 1 12
6 12 6 0 9 -9 8 -20z m-3153 -45 c-4 -8 -8 -15 -10 -15 -2 0 -4 7 -4 15 0 8 4
15 10 15 5 0 7 -7 4 -15z m6351 -6 c22 -10 29 -16 15 -13 -28 7 -80 33 -65 33
6 0 28 -9 50 -20z m-10815 -24 c-59 -22 -142 -46 -146 -42 -6 5 145 56 166 56
8 0 -1 -6 -20 -14z m1610 5 c-8 -5 -19 -10 -25 -10 -5 0 -3 5 5 10 8 5 20 10
25 10 6 0 3 -5 -5 -10z m3417 -32 c-3 -8 -6 -5 -6 6 -1 11 2 17 5 13 3 -3 4
-12 1 -19z m-3497 -3 c-14 -8 -29 -14 -35 -14 -5 0 1 6 15 14 14 8 30 14 35
14 6 0 -1 -6 -15 -14z m9460 -15 c8 -5 11 -10 5 -10 -5 0 -17 5 -25 10 -8 5
-10 10 -5 10 6 0 17 -5 25 -10z m-9540 -20 c-8 -5 -19 -10 -25 -10 -5 0 -3 5
5 10 8 5 20 10 25 10 6 0 3 -5 -5 -10z m3570 -5 c0 -8 -4 -15 -10 -15 -5 0 -7
7 -4 15 4 8 8 15 10 15 2 0 4 -7 4 -15z m-5269 -10 c-38 -17 -144 -46 -149
-41 -4 4 148 54 168 55 8 0 0 -6 -19 -14z m11319 5 c8 -5 11 -10 5 -10 -5 0
-17 5 -25 10 -8 5 -10 10 -5 10 6 0 17 -5 25 -10z m-9700 -25 c-14 -8 -29 -14
-35 -14 -5 0 1 6 15 14 14 8 30 14 35 14 6 0 -1 -6 -15 -14z m-70 -30 c-14 -8
-29 -14 -35 -14 -5 0 1 6 15 14 14 8 30 14 35 14 6 0 -1 -6 -15 -14z m4297
-27 c-3 -7 -5 -2 -5 12 0 14 2 19 5 13 2 -7 2 -19 0 -25z m1303 17 c11 -13 10
-14 -4 -9 -9 3 -16 10 -16 15 0 13 6 11 20 -6z m4350 -7 c10 -6 7 -7 -10 -2
-14 3 -32 11 -40 16 -10 6 -7 7 10 2 14 -3 32 -11 40 -16z m-10030 -18 c-19
-11 -51 -24 -70 -31 -19 -6 -42 -17 -50 -24 -8 -7 -28 -15 -45 -18 -17 -4 -1
7 35 24 36 16 83 38 105 49 52 25 70 25 25 0z m10080 0 c8 -5 11 -10 5 -10 -5
0 -17 5 -25 10 -8 5 -10 10 -5 10 6 0 17 -5 25 -10z m-1220 -36 c0 -2 -13 2
-30 11 -16 9 -30 18 -30 21 0 2 14 -2 30 -11 17 -9 30 -18 30 -21z m-4475 -13
c3 -5 1 -12 -5 -16 -5 -3 -10 1 -10 9 0 18 6 21 15 7z m5875 -21 c8 -5 11 -10
5 -10 -5 0 -17 5 -25 10 -8 5 -10 10 -5 10 6 0 17 -5 25 -10z m-10500 -35
c-14 -8 -29 -14 -35 -14 -5 0 1 6 15 14 14 8 30 14 35 14 6 0 -1 -6 -15 -14z
m-115 -50 c-38 -19 -74 -34 -80 -33 -5 0 22 15 60 33 39 19 75 34 80 33 6 0
-21 -15 -60 -33z m-115 -50 c-14 -8 -29 -14 -35 -14 -5 0 1 6 15 14 14 8 30
14 35 14 6 0 -1 -6 -15 -14z m-90 -40 c-14 -8 -29 -14 -35 -14 -5 0 1 6 15 14
14 8 30 14 35 14 6 0 -1 -6 -15 -14z m8950 -120 c0 -8 -179 110 -179 118 -1 4
40 -20 89 -53 50 -33 90 -63 90 -65z m-9079 64 c-46 -22 -86 -37 -89 -34 -3 2
17 14 44 25 27 11 63 27 79 34 17 8 35 15 40 15 6 0 -28 -18 -74 -40z m-156
-69 c-33 -16 -64 -29 -70 -29 -13 1 107 57 120 57 6 0 -17 -13 -50 -28z m9348
-69 c7 -8 -7 -2 -30 14 -24 15 -43 30 -43 32 0 7 61 -31 73 -46z m-9473 14
c-14 -8 -29 -14 -35 -14 -5 0 1 6 15 14 14 8 30 14 35 14 6 0 -1 -6 -15 -14z
m-70 -30 c-14 -8 -29 -14 -35 -14 -5 0 1 6 15 14 14 8 30 14 35 14 6 0 -1 -6
-15 -14z m-80 -35 c-19 -11 -39 -19 -45 -19 -5 0 6 8 25 19 19 11 40 19 45 19
6 0 -6 -8 -25 -19z m-125 -55 c-38 -19 -74 -34 -80 -33 -5 0 22 15 60 33 39
19 75 34 80 33 6 0 -21 -15 -60 -33z m-115 -50 c-14 -8 -29 -14 -35 -14 -5 0
1 6 15 14 14 8 30 14 35 14 6 0 -1 -6 -15 -14z m-80 -35 c-19 -11 -39 -19 -45
-19 -5 0 6 8 25 19 19 11 40 19 45 19 6 0 -6 -8 -25 -19z m-90 -40 c-19 -11
-39 -19 -45 -19 -5 0 6 8 25 19 19 11 40 19 45 19 6 0 -6 -8 -25 -19z m9671
-7 c13 -16 12 -17 -3 -4 -10 7 -18 15 -18 17 0 8 8 3 21 -13z"/>
<path d="M7935 4433 c-16 -3 -34 -8 -38 -12 -11 -11 -45 -220 -40 -242 5 -18
13 -19 87 -14 149 10 182 16 214 35 44 27 72 76 72 128 0 52 -21 87 -62 101
-30 11 -170 13 -233 4z"/>
<path d="M5995 4323 c-11 -3 -23 -8 -28 -12 -10 -10 -47 -224 -47 -273 l0 -37
48 4 c26 3 82 7 125 10 116 7 173 46 197 131 23 82 -1 142 -67 170 -31 13
-183 18 -228 7z"/>
<path d="M4525 2653 c-52 -108 -95 -206 -95 -219 0 -21 3 -23 48 -19 26 3 86
7 135 11 48 3 87 7 87 7 0 10 -52 369 -56 390 -3 15 -10 27 -15 27 -5 0 -52
-88 -104 -197z"/>
<path d="M8620 2863 c-52 -19 -90 -102 -90 -195 0 -115 105 -116 144 -1 23 68
21 158 -4 183 -21 21 -25 22 -50 13z"/>
<path d="M8015 2766 c-82 -36 -134 -153 -142 -321 -5 -93 -3 -102 19 -134 27
-40 68 -55 118 -41 49 13 76 35 104 83 48 83 78 265 57 344 -20 73 -83 101
-156 69z"/>
<path d="M9122 2547 c-74 -35 -99 -251 -32 -272 58 -19 110 57 118 171 4 63 2
74 -17 93 -23 23 -35 25 -69 8z"/>
<path d="M6687 1766 c-101 -27 -172 -123 -183 -247 -8 -77 16 -146 61 -175 43
-28 113 -30 173 -4 87 38 139 121 149 242 12 141 -72 219 -200 184z"/>
<path d="M5055 1738 c-9 -29 -25 -121 -25 -143 0 -22 5 -25 34 -25 18 0 45 9
59 20 48 38 58 128 17 150 -26 14 -80 12 -85 -2z"/>
<path d="M3470 1621 l0 -41 38 6 c46 7 64 21 60 48 -2 17 -11 22 -50 24 l-48
3 0 -40z"/>
<path d="M3212 1637 c-56 -32 -75 -124 -31 -160 48 -39 129 19 129 93 0 66
-45 96 -98 67z"/>
<path d="M3186 1153 c-11 -11 -6 -23 9 -23 8 0 15 4 15 9 0 13 -16 22 -24 14z"/>
<path d="M4089 908 c-5 -18 -6 -38 -1 -34 7 8 12 36 6 36 -2 0 -4 -1 -5 -2z"/>
</g>
</svg>
